<?xml version="1.0" encoding="UTF-8" standalone="no"?>
<svg
   xmlns:dc="http://purl.org/dc/elements/1.1/"
   xmlns:cc="http://creativecommons.org/ns#"
   xmlns:rdf="http://www.w3.org/1999/02/22-rdf-syntax-ns#"
   xmlns:svg="http://www.w3.org/2000/svg"
   xmlns="http://www.w3.org/2000/svg"
   xmlns:sodipodi="http://sodipodi.sourceforge.net/DTD/sodipodi-0.dtd"
   xmlns:inkscape="http://www.inkscape.org/namespaces/inkscape"
   viewBox="0 0 1479.8882 499.25232"
   width="1479.8882"
   height="499.25229"
   version="1.1"
   id="svg369"
   sodipodi:docname="austin_plate.svg"
   inkscape:version="1.0.2 (e86c870879, 2021-01-15)">
  <metadata
     id="metadata373">
    <rdf:RDF>
      <cc:Work
         rdf:about="">
        <dc:format>image/svg+xml</dc:format>
        <dc:type
           rdf:resource="http://purl.org/dc/dcmitype/StillImage" />
        <dc:title></dc:title>
      </cc:Work>
    </rdf:RDF>
  </metadata>
  <sodipodi:namedview
     pagecolor="#ffffff"
     bordercolor="#666666"
     borderopacity="1"
     objecttolerance="10"
     gridtolerance="10"
     guidetolerance="10"
     inkscape:pageopacity="0"
     inkscape:pageshadow="2"
     inkscape:window-width="1920"
     inkscape:window-height="1043"
     id="namedview371"
     showgrid="false"
     inkscape:zoom="0.45254834"
     inkscape:cx="662.96455"
     inkscape:cy="437.2107"
     inkscape:window-x="1920"
     inkscape:window-y="310"
     inkscape:window-maximized="1"
     inkscape:current-layer="g365"
     inkscape:object-paths="false"
     inkscape:snap-smooth-nodes="true" />
  <defs
     id="defs15">
    <marker
       id="DistanceX"
       orient="auto"
       refX="0"
       refY="0"
       style="overflow:visible">
      <path
         d="M 3,-3 -3,3 M 0,-5 V 5"
         style="stroke:#000000;stroke-width:0.5"
         id="path2" />
    </marker>
    <pattern
       id="Hatch"
       patternUnits="userSpaceOnUse"
       width="8"
       height="8"
       x="0"
       y="0">
      <path
         d="M8 4 l-4,4"
         stroke="#000000"
         stroke-width="0.25"
         linecap="square"
         id="path5" />
      <path
         d="M6 2 l-4,4"
         stroke="#000000"
         stroke-width="0.25"
         linecap="square"
         id="path7" />
      <path
         d="M4 0 l-4,4"
         stroke="#000000"
         stroke-width="0.25"
         linecap="square"
         id="path9" />
    </pattern>
    <symbol
       id="*Model_Space" />
    <symbol
       id="*Paper_Space" />
    <symbol
       id="*Paper_Space0" />
  </defs>
  <g
     inkscape:groupmode="layer"
     inkscape:label="0"
     id="g17"
     transform="translate(-23260.055,-10472.893)" />
  <g
     inkscape:groupmode="layer"
     inkscape:label="Layer 1"
     id="g365"
     transform="translate(-23260.055,-10472.893)">
    <g
       id="g1395"
       transform="matrix(0.03937008,0,0,0.03937008,23055.117,10300.373)"
       style="stroke-width:9.5999998;stroke-miterlimit:4;stroke-dasharray:none">
      <path
         d="m 6793.1986,6593.8453 c 0,0 -1248,0 -1248,0 -26.4,0 -48,-21.6 -48,-48 0,0 0,-1248 0,-1248 0,-26.4 21.6,-48 48,-48 0,0 1248,0 1248,0 26.4,0 48,21.6 48,48 0,0 0,1248 0,1248 0,26.4 -21.6,48 -48,48 z"
         style="fill:none;stroke:#000000;stroke-width:9.5999998;stroke-miterlimit:4;stroke-dasharray:none"
         id="path19" />
      <path
         d="m 6793.1986,8879.8432 c 0,0 -1248,0 -1248,0 -26.4,0 -48,-21.6 -48,-48 0,0 0,-1248 0,-1248 0,-26.4 21.6,-48 48,-48 0,0 1248,0 1248,0 26.4,0 48,21.6 48,48 0,0 0,1248 0,1248 0,26.4 -21.6,48 -48,48 z"
         style="fill:none;stroke:#000000;stroke-width:9.5999998;stroke-miterlimit:4;stroke-dasharray:none"
         id="path21" />
      <path
         d="m 8621.9986,8879.8432 c 0,0 -1248,0 -1248,0 -26.4,0 -48,-21.6 -48,-48 0,0 0,-1248 0,-1248 0,-26.4 21.6,-48 48,-48 0,0 1248,0 1248,0 26.4,0 48,21.6 48,48 0,0 0,1248 0,1248 0,26.4 -21.6,48 -48,48 z"
         style="fill:none;stroke:#000000;stroke-width:9.5999998;stroke-miterlimit:4;stroke-dasharray:none"
         id="path23" />
      <path
         d="m 9536.3986,10708.548 c 0,0 -1248,0 -1248,0 -26.4,0 -48,-21.6 -48,-48 0,0 0,-1248.0001 0,-1248.0001 0,-26.4 21.6,-48 48,-48 0,0 1248,0 1248,0 26.4,0 48,21.6 48,48 0,0 0,1248.0001 0,1248.0001 0,26.4 -21.6,48 -48,48 z"
         style="fill:none;stroke:#000000;stroke-width:9.5999998;stroke-miterlimit:4;stroke-dasharray:none"
         id="path25" />
      <path
         d="m 7250.398,10708.548 c 0,0 -1248,0 -1248,0 -26.4,0 -48,-21.6 -48,-48 0,0 0,-1248.0001 0,-1248.0001 0,-26.4 21.6,-48 48,-48 0,0 1248,0 1248,0 26.4,0 48,21.6 48,48 0,0 0,1248.0001 0,1248.0001 0,26.4 -21.6,48 -48,48 z"
         style="fill:none;stroke:#000000;stroke-width:9.5999998;stroke-miterlimit:4;stroke-dasharray:none"
         id="path27" />
      <path
         d="m 9993.5986,12537.443 c 0,0 -1248,0 -1248,0 -26.4,0 -48,-21.6 -48,-48 0,0 0,-1248 0,-1248 0,-26.4 21.6,-48 48,-48 0,0 1248,0 1248,0 26.4004,0 48.0004,21.6 48.0004,48 0,0 0,1248 0,1248 0,26.4 -21.6,48 -48.0004,48 z"
         style="fill:none;stroke:#000000;stroke-width:9.5999998;stroke-miterlimit:4;stroke-dasharray:none"
         id="path29" />
      <path
         d="m 7478.9983,12537.443 c 0,0 -1705.2021,0 -1705.2021,0 -26.4,0 -48,-21.6 -48,-48 0,0 0,-1248 0,-1248 0,-26.4 21.6,-48 48,-48 0,0 1705.2021,0 1705.2021,0 26.4,0 48,21.6 48,48 0,0 0,1248 0,1248 0,26.4 -21.6,48 -48,48 z"
         style="fill:none;stroke:#000000;stroke-width:9.5999998;stroke-miterlimit:4;stroke-dasharray:none"
         id="path31" />
      <path
         d="m 10907.999,14366.243 c 0,0 -1248.0004,0 -1248.0004,0 -26.4,0 -48,-21.6 -48,-48 0,0 0,-1248 0,-1248 0,-26.4 21.6,-48 48,-48 0,0 1248.0004,0 1248.0004,0 26.4,0 48,21.6 48,48 0,0 0,1248 0,1248 0,26.4 -21.6,48 -48,48 z"
         style="fill:none;stroke:#000000;stroke-width:9.5999998;stroke-miterlimit:4;stroke-dasharray:none"
         id="path33" />
      <path
         d="m 7936.1966,14366.243 c 0,0 -1248,0 -1248,0 -26.4,0 -48,-21.6 -48,-48 0,0 0,-1248 0,-1248 0,-26.4 21.6,-48 48,-48 0,0 1248,0 1248,0 26.4,0 48,21.6 48,48 0,0 0,1248 0,1248 0,26.4 -21.6,48 -48,48 z"
         style="fill:none;stroke:#000000;stroke-width:9.5999998;stroke-miterlimit:4;stroke-dasharray:none"
         id="path35" />
      <path
         d="m 7250.3969,16195.043 c 0,0 -1476.6007,0 -1476.6007,0 -26.4,0 -48,-21.6 -48,-48 0,0 0,-1248 0,-1248 0,-26.4 21.6,-48 48,-48 0,0 1476.6007,0 1476.6007,0 26.4,0 48,21.6 48,48 0,0 0,1248 0,1248 0,26.4 -21.6,48 -48,48 z"
         style="fill:none;stroke:#000000;stroke-width:9.5999998;stroke-miterlimit:4;stroke-dasharray:none"
         id="path37" />
      <path
         d="m 9993.599,16195.043 c 0,0 -1933.8028,0 -1933.8028,0 -26.4,0 -48,-21.6 -48,-48 0,0 0,-1248 0,-1248 0,-26.4 21.6,-48 48,-48 0,0 1933.8028,0 1933.8028,0 26.4,0 48,21.6 48,48 0,0 0,1248 0,1248 0,26.4 -21.6,48 -48,48 z"
         style="fill:none;stroke:#000000;stroke-width:9.5999998;stroke-miterlimit:4;stroke-dasharray:none"
         id="path39" />
      <path
         d="m 18451.798,16195.043 c 0,0 -1933.803,0 -1933.803,0 -26.4,0 -48,-21.6 -48,-48 0,0 0,-1248 0,-1248 0,-26.4 21.6,-48 48,-48 0,0 1933.803,0 1933.803,0 26.4,0 48,21.6 48,48 0,0 0,1248 0,1248 0,26.4 -21.6,48 -48,48 z"
         style="fill:none;stroke:#000000;stroke-width:9.5999998;stroke-miterlimit:4;stroke-dasharray:none"
         id="path41" />
      <path
         d="m 10450.799,8879.8432 c 0,0 -1248.0004,0 -1248.0004,0 -26.4,0 -48,-21.6 -48,-48 0,0 0,-1248 0,-1248 0,-26.4 21.6,-48 48,-48 0,0 1248.0004,0 1248.0004,0 26.4,0 48,21.6 48,48 0,0 0,1248 0,1248 0,26.4 -21.6,48 -48,48 z"
         style="fill:none;stroke:#000000;stroke-width:9.5999998;stroke-miterlimit:4;stroke-dasharray:none"
         id="path43" />
      <path
         d="m 11365.199,10708.548 c 0,0 -1248,0 -1248,0 -26.4,0 -48,-21.6 -48,-48 0,0 0,-1248.0001 0,-1248.0001 0,-26.4 21.6,-48 48,-48 0,0 1248,0 1248,0 26.4,0 48,21.6 48,48 0,0 0,1248.0001 0,1248.0001 0,26.4 -21.6,48 -48,48 z"
         style="fill:none;stroke:#000000;stroke-width:9.5999998;stroke-miterlimit:4;stroke-dasharray:none"
         id="path45" />
      <path
         d="m 11822.399,12537.443 c 0,0 -1248,0 -1248,0 -26.4,0 -48,-21.6 -48,-48 0,0 0,-1248 0,-1248 0,-26.4 21.6,-48 48,-48 0,0 1248,0 1248,0 26.4,0 48,21.6 48,48 0,0 0,1248 0,1248 0,26.4 -21.6,48 -48,48 z"
         style="fill:none;stroke:#000000;stroke-width:9.5999998;stroke-miterlimit:4;stroke-dasharray:none"
         id="path47" />
      <path
         d="m 12736.799,14366.243 c 0,0 -1248,0 -1248,0 -26.4,0 -48,-21.6 -48,-48 0,0 0,-1248 0,-1248 0,-26.4 21.6,-48 48,-48 0,0 1248,0 1248,0 26.4,0 48,21.6 48,48 0,0 0,1248 0,1248 0,26.4 -21.6,48 -48,48 z"
         style="fill:none;stroke:#000000;stroke-width:9.5999998;stroke-miterlimit:4;stroke-dasharray:none"
         id="path49" />
      <path
         d="m 12279.599,8879.8432 c 0,0 -1248,0 -1248,0 -26.4,0 -48,-21.6 -48,-48 0,0 0,-1248 0,-1248 0,-26.4 21.6,-48 48,-48 0,0 1248,0 1248,0 26.4,0 48,21.6 48,48 0,0 0,1248 0,1248 0,26.4 -21.6,48 -48,48 z"
         style="fill:none;stroke:#000000;stroke-width:9.5999998;stroke-miterlimit:4;stroke-dasharray:none"
         id="path51" />
      <path
         d="m 13193.999,10708.548 c 0,0 -1248,0 -1248,0 -26.4,0 -48,-21.6 -48,-48 0,0 0,-1248.0001 0,-1248.0001 0,-26.4 21.6,-48 48,-48 0,0 1248,0 1248,0 26.4,0 48,21.6 48,48 0,0 0,1248.0001 0,1248.0001 0,26.4 -21.6,48 -48,48 z"
         style="fill:none;stroke:#000000;stroke-width:9.5999998;stroke-miterlimit:4;stroke-dasharray:none"
         id="path53" />
      <path
         d="m 13651.199,12537.443 c 0,0 -1248,0 -1248,0 -26.4,0 -48,-21.6 -48,-48 0,0 0,-1248 0,-1248 0,-26.4 21.6,-48 48,-48 0,0 1248,0 1248,0 26.4,0 48,21.6 48,48 0,0 0,1248 0,1248 0,26.4 -21.6,48 -48,48 z"
         style="fill:none;stroke:#000000;stroke-width:9.5999998;stroke-miterlimit:4;stroke-dasharray:none"
         id="path55" />
      <path
         d="m 14565.599,14366.243 c 0,0 -1248,0 -1248,0 -26.4,0 -48,-21.6 -48,-48 0,0 0,-1248 0,-1248 0,-26.4 21.6,-48 48,-48 0,0 1248,0 1248,0 26.4,0 48,21.6 48,48 0,0 0,1248 0,1248 0,26.4 -21.6,48 -48,48 z"
         style="fill:none;stroke:#000000;stroke-width:9.5999998;stroke-miterlimit:4;stroke-dasharray:none"
         id="path57" />
      <path
         d="m 14108.399,8879.8432 c 0,0 -1248,0 -1248,0 -26.4,0 -48,-21.6 -48,-48 0,0 0,-1248 0,-1248 0,-26.4 21.6,-48 48,-48 0,0 1248,0 1248,0 26.4,0 48,21.6 48,48 0,0 0,1248 0,1248 0,26.4 -21.6,48 -48,48 z"
         style="fill:none;stroke:#000000;stroke-width:9.5999998;stroke-miterlimit:4;stroke-dasharray:none"
         id="path59" />
      <path
         d="m 15022.799,10708.548 c 0,0 -1248,0 -1248,0 -26.4,0 -48,-21.6 -48,-48 0,0 0,-1248.0001 0,-1248.0001 0,-26.4 21.6,-48 48,-48 0,0 1248,0 1248,0 26.4,0 48,21.6 48,48 0,0 0,1248.0001 0,1248.0001 0,26.4 -21.6,48 -48,48 z"
         style="fill:none;stroke:#000000;stroke-width:9.5999998;stroke-miterlimit:4;stroke-dasharray:none"
         id="path61" />
      <path
         d="m 15479.999,12537.443 c 0,0 -1248,0 -1248,0 -26.4,0 -48,-21.6 -48,-48 0,0 0,-1248 0,-1248 0,-26.4 21.6,-48 48,-48 0,0 1248,0 1248,0 26.4,0 48,21.6 48,48 0,0 0,1248 0,1248 0,26.4 -21.6,48 -48,48 z"
         style="fill:none;stroke:#000000;stroke-width:9.5999998;stroke-miterlimit:4;stroke-dasharray:none"
         id="path63" />
      <path
         d="m 16394.399,14366.243 c 0,0 -1248,0 -1248,0 -26.4,0 -48,-21.6 -48,-48 0,0 0,-1248 0,-1248 0,-26.4 21.6,-48 48,-48 0,0 1248,0 1248,0 26.4,0 48,21.6 48,48 0,0 0,1248 0,1248 0,26.4 -21.6,48 -48,48 z"
         style="fill:none;stroke:#000000;stroke-width:9.5999998;stroke-miterlimit:4;stroke-dasharray:none"
         id="path65" />
      <path
         d="m 15937.199,8879.8432 c 0,0 -1248,0 -1248,0 -26.4,0 -48,-21.6 -48,-48 0,0 0,-1248 0,-1248 0,-26.4 21.6,-48 48,-48 0,0 1248,0 1248,0 26.4,0 48,21.6 48,48 0,0 0,1248 0,1248 0,26.4 -21.6,48 -48,48 z"
         style="fill:none;stroke:#000000;stroke-width:9.5999998;stroke-miterlimit:4;stroke-dasharray:none"
         id="path67" />
      <path
         d="m 16851.599,10708.548 c 0,0 -1248,0 -1248,0 -26.4,0 -48,-21.6 -48,-48 0,0 0,-1248.0001 0,-1248.0001 0,-26.4 21.6,-48 48,-48 0,0 1248,0 1248,0 26.4,0 48,21.6 48,48 0,0 0,1248.0001 0,1248.0001 0,26.4 -21.6,48 -48,48 z"
         style="fill:none;stroke:#000000;stroke-width:9.5999998;stroke-miterlimit:4;stroke-dasharray:none"
         id="path69" />
      <path
         d="m 17308.799,12537.443 c 0,0 -1248,0 -1248,0 -26.4,0 -48,-21.6 -48,-48 0,0 0,-1248 0,-1248 0,-26.4 21.6,-48 48,-48 0,0 1248,0 1248,0 26.4,0 48,21.6 48,48 0,0 0,1248 0,1248 0,26.4 -21.6,48 -48,48 z"
         style="fill:none;stroke:#000000;stroke-width:9.5999998;stroke-miterlimit:4;stroke-dasharray:none"
         id="path71" />
      <path
         d="m 18223.199,14366.243 c 0,0 -1248,0 -1248,0 -26.4,0 -48,-21.6 -48,-48 0,0 0,-1248 0,-1248 0,-26.4 21.6,-48 48,-48 0,0 1248,0 1248,0 26.4,0 48,21.6 48,48 0,0 0,1248 0,1248 0,26.4 -21.6,48 -48,48 z"
         style="fill:none;stroke:#000000;stroke-width:9.5999998;stroke-miterlimit:4;stroke-dasharray:none"
         id="path73" />
      <path
         d="m 17765.999,8879.8432 c 0,0 -1248,0 -1248,0 -26.4,0 -48,-21.6 -48,-48 0,0 0,-1248 0,-1248 0,-26.4 21.6,-48 48,-48 0,0 1248,0 1248,0 26.4,0 48,21.6 48,48 0,0 0,1248 0,1248 0,26.4 -21.6,48 -48,48 z"
         style="fill:none;stroke:#000000;stroke-width:9.5999998;stroke-miterlimit:4;stroke-dasharray:none"
         id="path75" />
      <path
         d="m 18680.399,10708.548 c 0,0 -1248,0 -1248,0 -26.4,0 -48,-21.6 -48,-48 0,0 0,-1248.0001 0,-1248.0001 0,-26.4 21.6,-48 48,-48 0,0 1248,0 1248,0 26.4,0 48,21.6 48,48 0,0 0,1248.0001 0,1248.0001 0,26.4 -21.6,48 -48,48 z"
         style="fill:none;stroke:#000000;stroke-width:9.5999998;stroke-miterlimit:4;stroke-dasharray:none"
         id="path77" />
      <path
         d="m 19137.599,12537.443 c 0,0 -1248,0 -1248,0 -26.4,0 -48,-21.6 -48,-48 0,0 0,-1248 0,-1248 0,-26.4 21.6,-48 48,-48 0,0 1248,0 1248,0 26.4,0 48,21.6 48,48 0,0 0,1248 0,1248 0,26.4 -21.6,48 -48,48 z"
         style="fill:none;stroke:#000000;stroke-width:9.5999998;stroke-miterlimit:4;stroke-dasharray:none"
         id="path79" />
      <path
         d="m 20051.999,14366.243 c 0,0 -1248,0 -1248,0 -26.4,0 -48,-21.6 -48,-48 0,0 0,-1248 0,-1248 0,-26.4 21.6,-48 48,-48 0,0 1248,0 1248,0 26.4,0 48,21.6 48,48 0,0 0,1248 0,1248 0,26.4 -21.6,48 -48,48 z"
         style="fill:none;stroke:#000000;stroke-width:9.5999998;stroke-miterlimit:4;stroke-dasharray:none"
         id="path81" />
      <path
         d="m 19594.799,8879.8432 c 0,0 -1248,0 -1248,0 -26.4,0 -48,-21.6 -48,-48 0,0 0,-1248 0,-1248 0,-26.4 21.6,-48 48,-48 0,0 1248,0 1248,0 26.4,0 48,21.6 48,48 0,0 0,1248 0,1248 0,26.4 -21.6,48 -48,48 z"
         style="fill:none;stroke:#000000;stroke-width:9.5999998;stroke-miterlimit:4;stroke-dasharray:none"
         id="path83" />
      <path
         d="m 20509.199,10708.548 c 0,0 -1248,0 -1248,0 -26.4,0 -48,-21.6 -48,-48 0,0 0,-1248.0001 0,-1248.0001 0,-26.4 21.6,-48 48,-48 0,0 1248,0 1248,0 26.4,0 48,21.6 48,48 0,0 0,1248.0001 0,1248.0001 0,26.4 -21.6,48 -48,48 z"
         style="fill:none;stroke:#000000;stroke-width:9.5999998;stroke-miterlimit:4;stroke-dasharray:none"
         id="path85" />
      <path
         d="m 20966.399,12537.443 c 0,0 -1248,0 -1248,0 -26.4,0 -48,-21.6 -48,-48 0,0 0,-1248 0,-1248 0,-26.4 21.6,-48 48,-48 0,0 1248,0 1248,0 26.4,0 48,21.6 48,48 0,0 0,1248 0,1248 0,26.4 -21.6,48 -48,48 z"
         style="fill:none;stroke:#000000;stroke-width:9.5999998;stroke-miterlimit:4;stroke-dasharray:none"
         id="path87" />
      <path
         d="m 21880.799,14366.243 c 0,0 -1248,0 -1248,0 -26.4,0 -48,-21.6 -48,-48 0,0 0,-1248 0,-1248 0,-26.4 21.6,-48 48,-48 0,0 1248,0 1248,0 26.4,0 48,21.6 48,48 0,0 0,1248 0,1248 0,26.4 -21.6,48 -48,48 z"
         style="fill:none;stroke:#000000;stroke-width:9.5999998;stroke-miterlimit:4;stroke-dasharray:none"
         id="path89" />
      <path
         d="m 21423.599,8879.8432 c 0,0 -1248,0 -1248,0 -26.4,0 -48,-21.6 -48,-48 0,0 0,-1248 0,-1248 0,-26.4 21.6,-48 48,-48 0,0 1248,0 1248,0 26.4,0 48,21.6 48,48 0,0 0,1248 0,1248 0,26.4 -21.6,48 -48,48 z"
         style="fill:none;stroke:#000000;stroke-width:9.5999998;stroke-miterlimit:4;stroke-dasharray:none"
         id="path91" />
      <path
         d="m 22337.999,10708.548 c 0,0 -1248,0 -1248,0 -26.4,0 -48,-21.6 -48,-48 0,0 0,-1248.0001 0,-1248.0001 0,-26.4 21.6,-48 48,-48 0,0 1248,0 1248,0 26.4,0 48,21.6 48,48 0,0 0,1248.0001 0,1248.0001 0,26.4 -21.6,48 -48,48 z"
         style="fill:none;stroke:#000000;stroke-width:9.5999998;stroke-miterlimit:4;stroke-dasharray:none"
         id="path93" />
      <path
         d="m 22795.199,12537.443 c 0,0 -1248,0 -1248,0 -26.4,0 -48,-21.6 -48,-48 0,0 0,-1248 0,-1248 0,-26.4 21.6,-48 48,-48 0,0 1248,0 1248,0 26.4,0 48,21.6 48,48 0,0 0,1248 0,1248 0,26.4 -21.6,48 -48,48 z"
         style="fill:none;stroke:#000000;stroke-width:9.5999998;stroke-miterlimit:4;stroke-dasharray:none"
         id="path95" />
      <path
         d="m 23709.599,14366.243 c 0,0 -1248,0 -1248,0 -26.4,0 -48,-21.6 -48,-48 0,0 0,-1248 0,-1248 0,-26.4 21.6,-48 48,-48 0,0 1248,0 1248,0 26.4,0 48,21.6 48,48 0,0 0,1248 0,1248 0,26.4 -21.6,48 -48,48 z"
         style="fill:none;stroke:#000000;stroke-width:9.5999998;stroke-miterlimit:4;stroke-dasharray:none"
         id="path97" />
      <path
         d="m 23252.399,8879.8432 c 0,0 -1248,0 -1248,0 -26.4,0 -48,-21.6 -48,-48 0,0 0,-1248 0,-1248 0,-26.4 21.6,-48 48,-48 0,0 1248,0 1248,0 26.4,0 48,21.6 48,48 0,0 0,1248 0,1248 0,26.4 -21.6,48 -48,48 z"
         style="fill:none;stroke:#000000;stroke-width:9.5999998;stroke-miterlimit:4;stroke-dasharray:none"
         id="path99" />
      <path
         d="m 24166.799,10708.548 c 0,0 -1248,0 -1248,0 -26.4,0 -48,-21.6 -48,-48 0,0 0,-1248.0001 0,-1248.0001 0,-26.4 21.6,-48 48,-48 0,0 1248,0 1248,0 26.4,0 48,21.6 48,48 0,0 0,1248.0001 0,1248.0001 0,26.4 -21.6,48 -48,48 z"
         style="fill:none;stroke:#000000;stroke-width:9.5999998;stroke-miterlimit:4;stroke-dasharray:none"
         id="path101" />
      <path
         d="m 24623.999,12537.443 c 0,0 -1248,0 -1248,0 -26.4,0 -48,-21.6 -48,-48 0,0 0,-1248 0,-1248 0,-26.4 21.6,-48 48,-48 0,0 1248,0 1248,0 26.4,0 48,21.6 48,48 0,0 0,1248 0,1248 0,26.4 -21.6,48 -48,48 z"
         style="fill:none;stroke:#000000;stroke-width:9.5999998;stroke-miterlimit:4;stroke-dasharray:none"
         id="path103" />
      <path
         d="m 25538.399,14366.243 c 0,0 -1248,0 -1248,0 -26.4,0 -48,-21.6 -48,-48 0,0 0,-1248 0,-1248 0,-26.4 21.6,-48 48,-48 0,0 1248,0 1248,0 26.4,0 48,21.6 48,48 0,0 0,1248 0,1248 0,26.4 -21.6,48 -48,48 z"
         style="fill:none;stroke:#000000;stroke-width:9.5999998;stroke-miterlimit:4;stroke-dasharray:none"
         id="path105" />
      <path
         d="m 25538.399,16195.042 c 0,0 -1248,0 -1248,0 -26.4,0 -48,-21.6 -48,-48 0,0 0,-1248 0,-1248 0,-26.4 21.6,-48 48,-48 0,0 1248,0 1248,0 26.4,0 48,21.6 48,48 0,0 0,1248 0,1248 0,26.4 -21.6,48 -48,48 z"
         style="fill:none;stroke:#000000;stroke-width:9.5999998;stroke-miterlimit:4;stroke-dasharray:none"
         id="path107" />
      <path
         d="m 25081.199,8879.8432 c 0,0 -1248,0 -1248,0 -26.4,0 -48,-21.6 -48,-48 0,0 0,-1248 0,-1248 0,-26.4 21.6,-48 48,-48 0,0 1248,0 1248,0 26.4,0 48,21.6 48,48 0,0 0,1248 0,1248 0,26.4 -21.6,48 -48,48 z"
         style="fill:none;stroke:#000000;stroke-width:9.5999998;stroke-miterlimit:4;stroke-dasharray:none"
         id="path109" />
      <path
         d="m 25995.599,10708.548 c 0,0 -1248,0 -1248,0 -26.4,0 -48,-21.6 -48,-48 0,0 0,-1248.0001 0,-1248.0001 0,-26.4 21.6,-48 48,-48 0,0 1248,0 1248,0 26.4,0 48,21.6 48,48 0,0 0,1248.0001 0,1248.0001 0,26.4 -21.6,48 -48,48 z"
         style="fill:none;stroke:#000000;stroke-width:9.5999998;stroke-miterlimit:4;stroke-dasharray:none"
         id="path111" />
      <path
         d="m 26452.799,12537.443 c 0,0 -1248,0 -1248,0 -26.4,0 -48,-21.6 -48,-48 0,0 0,-1248 0,-1248 0,-26.4 21.6,-48 48,-48 0,0 1248,0 1248,0 26.4,0 48,21.6 48,48 0,0 0,1248 0,1248 0,26.4 -21.6,48 -48,48 z"
         style="fill:none;stroke:#000000;stroke-width:9.5999998;stroke-miterlimit:4;stroke-dasharray:none"
         id="path113" />
      <path
         d="m 27367.199,14366.243 c 0,0 -1248,0 -1248,0 -26.4,0 -48,-21.6 -48,-48 0,0 0,-1248 0,-1248 0,-26.4 21.6,-48 48,-48 0,0 1248,0 1248,0 26.4,0 48,21.6 48,48 0,0 0,1248 0,1248 0,26.4 -21.6,48 -48,48 z"
         style="fill:none;stroke:#000000;stroke-width:9.5999998;stroke-miterlimit:4;stroke-dasharray:none"
         id="path115" />
      <path
         d="m 26909.999,8879.8432 c 0,0 -1248,0 -1248,0 -26.4,0 -48,-21.6 -48,-48 0,0 0,-1248 0,-1248 0,-26.4 21.6,-48 48,-48 0,0 1248,0 1248,0 26.4,0 48,21.6 48,48 0,0 0,1248 0,1248 0,26.4 -21.6,48 -48,48 z"
         style="fill:none;stroke:#000000;stroke-width:9.5999998;stroke-miterlimit:4;stroke-dasharray:none"
         id="path117" />
      <path
         d="m 27824.399,10708.548 c 0,0 -1248,0 -1248,0 -26.4,0 -48,-21.6 -48,-48 0,0 0,-1248.0001 0,-1248.0001 0,-26.4 21.6,-48 48,-48 0,0 1248,0 1248,0 26.4,0 48,21.6 48,48 0,0 0,1248.0001 0,1248.0001 0,26.4 -21.6,48 -48,48 z"
         style="fill:none;stroke:#000000;stroke-width:9.5999998;stroke-miterlimit:4;stroke-dasharray:none"
         id="path119" />
      <path
         d="m 29653.198,10708.548 c 0,0 -1248,0 -1248,0 -26.4,0 -48,-21.6 -48,-48 0,0 0,-1248.0001 0,-1248.0001 0,-26.4 21.6,-48 48,-48 0,0 1248,0 1248,0 26.4,0 48,21.6 48,48 0,0 0,1248.0001 0,1248.0001 0,26.4 -21.6,48 -48,48 z"
         style="fill:none;stroke:#000000;stroke-width:9.5999998;stroke-miterlimit:4;stroke-dasharray:none"
         id="path121" />
      <path
         d="m 31939.197,10708.548 c 0,0 -1248,0 -1248,0 -26.4,0 -48,-21.6 -48,-48 0,0 0,-1248.0001 0,-1248.0001 0,-26.4 21.6,-48 48,-48 0,0 1248,0 1248,0 26.4,0 48,21.6 48,48 0,0 0,1248.0001 0,1248.0001 0,26.4 -21.6,48 -48,48 z"
         style="fill:none;stroke:#000000;stroke-width:9.5999998;stroke-miterlimit:4;stroke-dasharray:none"
         id="path123" />
      <path
         d="m 28281.599,12537.443 c 0,0 -1248,0 -1248,0 -26.4,0 -48,-21.6 -48,-48 0,0 0,-1248 0,-1248 0,-26.4 21.6,-48 48,-48 0,0 1248,0 1248,0 26.4,0 48,21.6 48,48 0,0 0,1248 0,1248 0,26.4 -21.6,48 -48,48 z"
         style="fill:none;stroke:#000000;stroke-width:9.5999998;stroke-miterlimit:4;stroke-dasharray:none"
         id="path125" />
      <path
         d="m 31253.375,12537.443 c 0,0 -1248,0 -1248,0 -26.4,0 -48,-21.6 -48,-48 0,0 0,-1248 0,-1248 0,-26.4 21.6,-48 48,-48 0,0 1248,0 1248,0 26.4,0 48,21.6 48,48 0,0 0,1248 0,1248 0,26.4 -21.6,48 -48,48 z"
         style="fill:none;stroke:#000000;stroke-width:9.5999998;stroke-miterlimit:4;stroke-dasharray:none"
         id="path127" />
      <path
         d="m 29881.797,14366.243 c 0,0 -1248,0 -1248,0 -26.4,0 -48,-21.6 -48,-48 0,0 0,-1248 0,-1248 0,-26.4 21.6,-48 48,-48 0,0 1248,0 1248,0 26.4,0 48,21.6 48,48 0,0 0,1248 0,1248 0,26.4 -21.6,48 -48,48 z"
         style="fill:none;stroke:#000000;stroke-width:9.5999998;stroke-miterlimit:4;stroke-dasharray:none"
         id="path129" />
      <path
         d="m 32853.598,14823.443 c 0,0 -1248,0 -1248,0 -26.4,0 -48,-21.6 -48,-48 0,0 0,-1248 0,-1248 0,-26.4 21.6,-48 48,-48 0,0 1248,0 1248,0 26.4,0 48,21.6 48,48 0,0 0,1248 0,1248 0,26.4 -21.6,48 -48,48 z"
         style="fill:none;stroke:#000000;stroke-width:9.5999998;stroke-miterlimit:4;stroke-dasharray:none"
         id="path131" />
      <path
         d="m 32853.598,16652.243 c 0,0 -1248,0 -1248,0 -26.4,0 -48,-21.6 -48,-48 0,0 0,-1248 0,-1248 0,-26.4 21.6,-48 48,-48 0,0 1248,0 1248,0 26.4,0 48,21.6 48,48 0,0 0,1248 0,1248 0,26.4 -21.6,48 -48,48 z"
         style="fill:none;stroke:#000000;stroke-width:9.5999998;stroke-miterlimit:4;stroke-dasharray:none"
         id="path133" />
      <path
         d="m 31024.799,16652.243 c 0,0 -1248,0 -1248,0 -26.4,0 -48,-21.6 -48,-48 0,0 0,-1248 0,-1248 0,-26.4 21.6,-48 48,-48 0,0 1248,0 1248,0 26.4,0 48,21.6 48,48 0,0 0,1248 0,1248 0,26.4 -21.6,48 -48,48 z"
         style="fill:none;stroke:#000000;stroke-width:9.5999998;stroke-miterlimit:4;stroke-dasharray:none"
         id="path135" />
      <path
         d="m 34682.399,16652.243 c 0,0 -1248,0 -1248,0 -26.4,0 -48,-21.6 -48,-48 0,0 0,-1248 0,-1248 0,-26.4 21.6,-48 48,-48 0,0 1248,0 1248,0 26.4,0 48,21.6 48,48 0,0 0,1248 0,1248 0,26.4 -21.6,48 -48,48 z"
         style="fill:none;stroke:#000000;stroke-width:9.5999998;stroke-miterlimit:4;stroke-dasharray:none"
         id="path137" />
      <path
         d="m 28281.599,16195.043 c 0,0 -1248,0 -1248,0 -26.4,0 -48,-21.6 -48,-48 0,0 0,-1248 0,-1248 0,-26.4 21.6,-48 48,-48 0,0 1248,0 1248,0 26.4,0 48,21.6 48,48 0,0 0,1248 0,1248 0,26.4 -21.6,48 -48,48 z"
         style="fill:none;stroke:#000000;stroke-width:9.5999998;stroke-miterlimit:4;stroke-dasharray:none"
         id="path139" />
      <path
         d="m 28738.799,8879.8432 c 0,0 -1248,0 -1248,0 -26.4,0 -48,-21.6 -48,-48 0,0 0,-1248 0,-1248 0,-26.4 21.6,-48 48,-48 0,0 1248,0 1248,0 26.4,0 48,21.6 48,48 0,0 0,1248 0,1248 0,26.4 -21.6,48 -48,48 z"
         style="fill:none;stroke:#000000;stroke-width:9.5999998;stroke-miterlimit:4;stroke-dasharray:none"
         id="path141" />
      <path
         d="m 32444.399,7583.843 c 0,-26.3995 -21.6,-47.9991 -47.999,-47.9991 0,0 -3076.78,0 -3076.78,0 -26.399,0 -47.999,21.5996 -47.999,47.9991 0,0 0,71.9998 0,71.9998 0,0 0,1176.0006 0,1176.0006 0,0 0,96.0003 0,96.0003 0,26.5092 21.49,47.9991 47.999,47.9991 0,0 704.342,0 704.342,0 26.51,0 48.001,-21.4908 48.001,-48.0012 0,0 0,-10e-5 0,-10e-5 0,-26.5091 21.49,-47.999 47.999,-47.999 0,0 1476.096,0 1476.096,0 26.509,0 47.999,21.4899 47.999,47.999 0,0 0,0 0,0 0,26.5092 21.49,47.9991 47.999,47.9991 0,0 701.989,0 701.989,0 26.51,0 48,-21.4899 48,-47.9991 0,0 0,-81.9526 0,-81.9526 1.389,-4.4752 2.354,-9.1323 2.354,-14.0477 0,0 0,-1248.0004 0,-1248.0004 z"
         style="fill:none;stroke:#000000;stroke-width:9.5999998;stroke-miterlimit:4;stroke-dasharray:none"
         id="path143" />
      <path
         d="m 38845.179,14899.042 c 0,-26.399 -21.599,-47.999 -47.999,-47.999 0,0 -3076.779,0 -3076.779,0 -26.4,0 -48,21.6 -48,47.999 0,0 0,72 0,72 0,0 0,1176.001 0,1176.001 0,0 0,96 0,96 0,26.509 21.49,47.999 48,47.999 0,0 704.341,0 704.341,0 26.51,0 48.001,-21.491 48.001,-48.001 0,0 0,0 0,0 0,-26.509 21.49,-47.999 47.999,-47.999 0,0 1476.096,0 1476.096,0 26.51,0 47.999,21.49 47.999,47.999 0,0 0,0 0,0 0,26.509 21.49,47.999 48,47.999 0,0 701.989,0 701.989,0 26.509,0 47.999,-21.49 47.999,-47.999 0,0 0,-81.953 0,-81.953 1.389,-4.475 2.354,-9.132 2.354,-14.047 0,0 0,-1248.001 0,-1248.001 z"
         style="fill:none;stroke:#000000;stroke-width:9.5999998;stroke-miterlimit:4;stroke-dasharray:none"
         id="path145" />
      <path
         d="m 9079.1986,6593.8453 c 0,0 -1248,0 -1248,0 -26.4,0 -48,-21.6 -48,-48 0,0 0,-1248 0,-1248 0,-26.4 21.6,-48 48,-48 0,0 1248,0 1248,0 26.4,0 48,21.6 48,48 0,0 0,1248 0,1248 0,26.4 -21.6,48 -48,48 z"
         style="fill:none;stroke:#000000;stroke-width:9.5999998;stroke-miterlimit:4;stroke-dasharray:none"
         id="path147" />
      <path
         d="m 10907.999,6593.8453 c 0,0 -1248.0004,0 -1248.0004,0 -26.4,0 -48,-21.6 -48,-48 0,0 0,-1248 0,-1248 0,-26.4 21.6,-48 48,-48 0,0 1248.0004,0 1248.0004,0 26.4,0 48,21.6 48,48 0,0 0,1248 0,1248 0,26.4 -21.6,48 -48,48 z"
         style="fill:none;stroke:#000000;stroke-width:9.5999998;stroke-miterlimit:4;stroke-dasharray:none"
         id="path149" />
      <path
         d="m 12736.799,6593.8453 c 0,0 -1248,0 -1248,0 -26.4,0 -48,-21.6 -48,-48 0,0 0,-1248 0,-1248 0,-26.4 21.6,-48 48,-48 0,0 1248,0 1248,0 26.4,0 48,21.6 48,48 0,0 0,1248 0,1248 0,26.4 -21.6,48 -48,48 z"
         style="fill:none;stroke:#000000;stroke-width:9.5999998;stroke-miterlimit:4;stroke-dasharray:none"
         id="path151" />
      <path
         d="m 14565.599,6593.8453 c 0,0 -1248,0 -1248,0 -26.4,0 -48,-21.6 -48,-48 0,0 0,-1248 0,-1248 0,-26.4 21.6,-48 48,-48 0,0 1248,0 1248,0 26.4,0 48,21.6 48,48 0,0 0,1248 0,1248 0,26.4 -21.6,48 -48,48 z"
         style="fill:none;stroke:#000000;stroke-width:9.5999998;stroke-miterlimit:4;stroke-dasharray:none"
         id="path153" />
      <path
         d="m 16851.599,6593.8453 c 0,0 -1248,0 -1248,0 -26.4,0 -48,-21.6 -48,-48 0,0 0,-1248 0,-1248 0,-26.4 21.6,-48 48,-48 0,0 1248,0 1248,0 26.4,0 48,21.6 48,48 0,0 0,1248 0,1248 0,26.4 -21.6,48 -48,48 z"
         style="fill:none;stroke:#000000;stroke-width:9.5999998;stroke-miterlimit:4;stroke-dasharray:none"
         id="path155" />
      <path
         d="m 18680.399,6593.8453 c 0,0 -1248,0 -1248,0 -26.4,0 -48,-21.6 -48,-48 0,0 0,-1248 0,-1248 0,-26.4 21.6,-48 48,-48 0,0 1248,0 1248,0 26.4,0 48,21.6 48,48 0,0 0,1248 0,1248 0,26.4 -21.6,48 -48,48 z"
         style="fill:none;stroke:#000000;stroke-width:9.5999998;stroke-miterlimit:4;stroke-dasharray:none"
         id="path157" />
      <path
         d="m 20509.199,6593.8453 c 0,0 -1248,0 -1248,0 -26.4,0 -48,-21.6 -48,-48 0,0 0,-1248 0,-1248 0,-26.4 21.6,-48 48,-48 0,0 1248,0 1248,0 26.4,0 48,21.6 48,48 0,0 0,1248 0,1248 0,26.4 -21.6,48 -48,48 z"
         style="fill:none;stroke:#000000;stroke-width:9.5999998;stroke-miterlimit:4;stroke-dasharray:none"
         id="path159" />
      <path
         d="m 22337.999,6593.8453 c 0,0 -1248,0 -1248,0 -26.4,0 -48,-21.6 -48,-48 0,0 0,-1248 0,-1248 0,-26.4 21.6,-48 48,-48 0,0 1248,0 1248,0 26.4,0 48,21.6 48,48 0,0 0,1248 0,1248 0,26.4 -21.6,48 -48,48 z"
         style="fill:none;stroke:#000000;stroke-width:9.5999998;stroke-miterlimit:4;stroke-dasharray:none"
         id="path161" />
      <path
         d="m 24623.975,6593.8453 c 0,0 -1248,0 -1248,0 -26.4,0 -48,-21.6 -48,-48 0,0 0,-1248 0,-1248 0,-26.4 21.6,-48 48,-48 0,0 1248,0 1248,0 26.4,0 48,21.6 48,48 0,0 0,1248 0,1248 0,26.4 -21.6,48 -48,48 z"
         style="fill:none;stroke:#000000;stroke-width:9.5999998;stroke-miterlimit:4;stroke-dasharray:none"
         id="path163" />
      <path
         d="m 26452.775,6593.8453 c 0,0 -1248,0 -1248,0 -26.4,0 -48,-21.6 -48,-48 0,0 0,-1248 0,-1248 0,-26.4 21.6,-48 48,-48 0,0 1248,0 1248,0 26.4,0 48,21.6 48,48 0,0 0,1248 0,1248 0,26.4 -21.6,48 -48,48 z"
         style="fill:none;stroke:#000000;stroke-width:9.5999998;stroke-miterlimit:4;stroke-dasharray:none"
         id="path165" />
      <path
         d="m 28281.575,6593.8453 c 0,0 -1248,0 -1248,0 -26.4,0 -48,-21.6 -48,-48 0,0 0,-1248 0,-1248 0,-26.4 21.6,-48 48,-48 0,0 1248,0 1248,0 26.4,0 48,21.6 48,48 0,0 0,1248 0,1248 0,26.4 -21.6,48 -48,48 z"
         style="fill:none;stroke:#000000;stroke-width:9.5999998;stroke-miterlimit:4;stroke-dasharray:none"
         id="path167" />
      <path
         d="m 30110.375,6593.8453 c 0,0 -1248,0 -1248,0 -26.4,0 -48,-21.6 -48,-48 0,0 0,-1248 0,-1248 0,-26.4 21.6,-48 48,-48 0,0 1248,0 1248,0 26.4,0 48,21.6 48,48 0,0 0,1248 0,1248 0,26.4 -21.6,48 -48,48 z"
         style="fill:none;stroke:#000000;stroke-width:9.5999998;stroke-miterlimit:4;stroke-dasharray:none"
         id="path169" />
      <path
         d="m 36968.398,6593.8453 c 0,0 -1248,0 -1248,0 -26.4,0 -48,-21.6 -48,-48 0,0 0,-1248 0,-1248 0,-26.4 21.6,-48 48,-48 0,0 1248,0 1248,0 26.4,0 48,21.6 48,48 0,0 0,1248 0,1248 0,26.4 -21.6,48 -48,48 z"
         style="fill:none;stroke:#000000;stroke-width:9.5999998;stroke-miterlimit:4;stroke-dasharray:none"
         id="path171" />
      <path
         d="m 32396.399,6593.8453 c 0,0 -1248,0 -1248,0 -26.4,0 -48,-21.6 -48,-48 0,0 0,-1248 0,-1248 0,-26.4 21.6,-48 48,-48 0,0 1248,0 1248,0 26.4,0 48,21.6 48,48 0,0 0,1248 0,1248 0,26.4 -21.6,48 -48,48 z"
         style="fill:none;stroke:#000000;stroke-width:9.5999998;stroke-miterlimit:4;stroke-dasharray:none"
         id="path173" />
      <path
         d="m 38797.198,6593.8453 c 0,0 -1248,0 -1248,0 -26.4,0 -48,-21.6 -48,-48 0,0 0,-1248 0,-1248 0,-26.4 21.6,-48 48,-48 0,0 1248,0 1248,0 26.4,0 48,21.6 48,48 0,0 0,1248 0,1248 0,26.4 -21.6,48 -48,48 z"
         style="fill:none;stroke:#000000;stroke-width:9.5999998;stroke-miterlimit:4;stroke-dasharray:none"
         id="path175" />
      <path
         d="m 34682.399,6593.8453 c 0,0 -1248,0 -1248,0 -26.4,0 -48,-21.6 -48,-48 0,0 0,-1248 0,-1248 0,-26.4 21.6,-48 48,-48 0,0 1248,0 1248,0 26.4,0 48,21.6 48,48 0,0 0,1248 0,1248 0,26.4 -21.6,48 -48,48 z"
         style="fill:none;stroke:#000000;stroke-width:9.5999998;stroke-miterlimit:4;stroke-dasharray:none"
         id="path177" />
      <path
         d="m 40625.998,6593.8453 c 0,0 -1248,0 -1248,0 -26.4,0 -48,-21.6 -48,-48 0,0 0,-1248 0,-1248 0,-26.4 21.6,-48 48,-48 0,0 1248,0 1248,0 26.4,0 48,21.6 48,48 0,0 0,1248 0,1248 0,26.4 -21.6,48 -48,48 z"
         style="fill:none;stroke:#000000;stroke-width:9.5999998;stroke-miterlimit:4;stroke-dasharray:none"
         id="path179" />
      <path
         d="m 42454.798,6593.8453 c 0,0 -1248,0 -1248,0 -26.4,0 -48,-21.6 -48,-48 0,0 0,-1248 0,-1248 0,-26.4 21.6,-48 48,-48 0,0 1248,0 1248,0 26.4,0 48,21.6 48,48 0,0 0,1248 0,1248 0,26.4 -21.6,48 -48,48 z"
         style="fill:none;stroke:#000000;stroke-width:9.5999998;stroke-miterlimit:4;stroke-dasharray:none"
         id="path181" />
      <path
         d="m 36968.398,8879.8432 c 0,0 -1248,0 -1248,0 -26.4,0 -48,-21.6 -48,-48 0,0 0,-1248 0,-1248 0,-26.4 21.6,-48 48,-48 0,0 1248,0 1248,0 26.4,0 48,21.6 48,48 0,0 0,1248 0,1248 0,26.4 -21.6,48 -48,48 z"
         style="fill:none;stroke:#000000;stroke-width:9.5999998;stroke-miterlimit:4;stroke-dasharray:none"
         id="path183" />
      <path
         d="m 38797.198,8879.8432 c 0,0 -1248,0 -1248,0 -26.4,0 -48,-21.6 -48,-48 0,0 0,-1248 0,-1248 0,-26.4 21.6,-48 48,-48 0,0 1248,0 1248,0 26.4,0 48,21.6 48,48 0,0 0,1248 0,1248 0,26.4 -21.6,48 -48,48 z"
         style="fill:none;stroke:#000000;stroke-width:9.5999998;stroke-miterlimit:4;stroke-dasharray:none"
         id="path185" />
      <path
         d="m 34682.399,8879.8432 c 0,0 -1248,0 -1248,0 -26.4,0 -48,-21.6 -48,-48 0,0 0,-1248 0,-1248 0,-26.4 21.6,-48 48,-48 0,0 1248,0 1248,0 26.4,0 48,21.6 48,48 0,0 0,1248 0,1248 0,26.4 -21.6,48 -48,48 z"
         style="fill:none;stroke:#000000;stroke-width:9.5999998;stroke-miterlimit:4;stroke-dasharray:none"
         id="path187" />
      <path
         d="m 40625.998,8879.8432 c 0,0 -1248,0 -1248,0 -26.4,0 -48,-21.6 -48,-48 0,0 0,-1248 0,-1248 0,-26.4 21.6,-48 48,-48 0,0 1248,0 1248,0 26.4,0 48,21.6 48,48 0,0 0,1248 0,1248 0,26.4 -21.6,48 -48,48 z"
         style="fill:none;stroke:#000000;stroke-width:9.5999998;stroke-miterlimit:4;stroke-dasharray:none"
         id="path189" />
      <path
         d="m 36968.398,10708.643 c 0,0 -1248,0 -1248,0 -26.4,0 -48,-21.6 -48,-48 0,0 0,-1247.9998 0,-1247.9998 0,-26.4 21.6,-48 48,-48 0,0 1248,0 1248,0 26.4,0 48,21.6 48,48 0,0 0,1247.9998 0,1247.9998 0,26.4 -21.6,48 -48,48 z"
         style="fill:none;stroke:#000000;stroke-width:9.5999998;stroke-miterlimit:4;stroke-dasharray:none"
         id="path191" />
      <path
         d="m 38797.198,10708.643 c 0,0 -1248,0 -1248,0 -26.4,0 -48,-21.6 -48,-48 0,0 0,-1247.9998 0,-1247.9998 0,-26.4 21.6,-48 48,-48 0,0 1248,0 1248,0 26.4,0 48,21.6 48,48 0,0 0,1247.9998 0,1247.9998 0,26.4 -21.6,48 -48,48 z"
         style="fill:none;stroke:#000000;stroke-width:9.5999998;stroke-miterlimit:4;stroke-dasharray:none"
         id="path193" />
      <path
         d="m 34682.399,10708.643 c 0,0 -1248,0 -1248,0 -26.4,0 -48,-21.6 -48,-48 0,0 0,-1247.9998 0,-1247.9998 0,-26.4 21.6,-48 48,-48 0,0 1248,0 1248,0 26.4,0 48,21.6 48,48 0,0 0,1247.9998 0,1247.9998 0,26.4 -21.6,48 -48,48 z"
         style="fill:none;stroke:#000000;stroke-width:9.5999998;stroke-miterlimit:4;stroke-dasharray:none"
         id="path195" />
      <path
         d="m 40625.998,10708.643 c 0,0 -1248,0 -1248,0 -26.4,0 -48,-21.6 -48,-48 0,0 0,-1247.9998 0,-1247.9998 0,-26.4 21.6,-48 48,-48 0,0 1248,0 1248,0 26.4,0 48,21.6 48,48 0,0 0,1247.9998 0,1247.9998 0,26.4 -21.6,48 -48,48 z"
         style="fill:none;stroke:#000000;stroke-width:9.5999998;stroke-miterlimit:4;stroke-dasharray:none"
         id="path197" />
      <path
         d="m 36968.398,12537.443 c 0,0 -1248,0 -1248,0 -26.4,0 -48,-21.6 -48,-48 0,0 0,-1248 0,-1248 0,-26.4 21.6,-48 48,-48 0,0 1248,0 1248,0 26.4,0 48,21.6 48,48 0,0 0,1248 0,1248 0,26.4 -21.6,48 -48,48 z"
         style="fill:none;stroke:#000000;stroke-width:9.5999998;stroke-miterlimit:4;stroke-dasharray:none"
         id="path199" />
      <path
         d="m 38797.198,12537.443 c 0,0 -1248,0 -1248,0 -26.4,0 -48,-21.6 -48,-48 0,0 0,-1248 0,-1248 0,-26.4 21.6,-48 48,-48 0,0 1248,0 1248,0 26.4,0 48,21.6 48,48 0,0 0,1248 0,1248 0,26.4 -21.6,48 -48,48 z"
         style="fill:none;stroke:#000000;stroke-width:9.5999998;stroke-miterlimit:4;stroke-dasharray:none"
         id="path201" />
      <path
         d="m 34682.399,12537.443 c 0,0 -1248,0 -1248,0 -26.4,0 -48,-21.6 -48,-48 0,0 0,-1248 0,-1248 0,-26.4 21.6,-48 48,-48 0,0 1248,0 1248,0 26.4,0 48,21.6 48,48 0,0 0,1248 0,1248 0,26.4 -21.6,48 -48,48 z"
         style="fill:none;stroke:#000000;stroke-width:9.5999998;stroke-miterlimit:4;stroke-dasharray:none"
         id="path203" />
      <path
         d="m 40625.998,12537.443 c 0,0 -1248,0 -1248,0 -26.4,0 -48,-21.6 -48,-48 0,0 0,-1248 0,-1248 0,-26.4 21.6,-48 48,-48 0,0 1248,0 1248,0 26.4,0 48,21.6 48,48 0,0 0,1248 0,1248 0,26.4 -21.6,48 -48,48 z"
         style="fill:none;stroke:#000000;stroke-width:9.5999998;stroke-miterlimit:4;stroke-dasharray:none"
         id="path205" />
      <path
         d="m 36968.398,14366.243 c 0,0 -1248,0 -1248,0 -26.4,0 -48,-21.6 -48,-48 0,0 0,-1248 0,-1248 0,-26.4 21.6,-48 48,-48 0,0 1248,0 1248,0 26.4,0 48,21.6 48,48 0,0 0,1248 0,1248 0,26.4 -21.6,48 -48,48 z"
         style="fill:none;stroke:#000000;stroke-width:9.5999998;stroke-miterlimit:4;stroke-dasharray:none"
         id="path207" />
      <path
         d="m 38797.198,14366.243 c 0,0 -1248,0 -1248,0 -26.4,0 -48,-21.6 -48,-48 0,0 0,-1248 0,-1248 0,-26.4 21.6,-48 48,-48 0,0 1248,0 1248,0 26.4,0 48,21.6 48,48 0,0 0,1248 0,1248 0,26.4 -21.6,48 -48,48 z"
         style="fill:none;stroke:#000000;stroke-width:9.5999998;stroke-miterlimit:4;stroke-dasharray:none"
         id="path209" />
      <path
         d="m 40625.998,14366.243 c 0,0 -1248,0 -1248,0 -26.4,0 -48,-21.6 -48,-48 0,0 0,-1248 0,-1248 0,-26.4 21.6,-48 48,-48 0,0 1248,0 1248,0 26.4,0 48,21.6 48,48 0,0 0,1248 0,1248 0,26.4 -21.6,48 -48,48 z"
         style="fill:none;stroke:#000000;stroke-width:9.5999998;stroke-miterlimit:4;stroke-dasharray:none"
         id="path211" />
      <path
         d="m 40625.998,16195.043 c 0,0 -1248,0 -1248,0 -26.4,0 -48,-21.6 -48,-48 0,0 0,-1248 0,-1248 0,-26.4 21.6,-48 48,-48 0,0 1248,0 1248,0 26.4,0 48,21.6 48,48 0,0 0,1248 0,1248 0,26.4 -21.6,48 -48,48 z"
         style="fill:none;stroke:#000000;stroke-width:9.5999998;stroke-miterlimit:4;stroke-dasharray:none"
         id="path213" />
      <path
         d="m 42454.798,8879.8432 c 0,0 -1248,0 -1248,0 -26.4,0 -48,-21.6 -48,-48 0,0 0,-1248 0,-1248 0,-26.4 21.6,-48 48,-48 0,0 1248,0 1248,0 26.4,0 48,21.6 48,48 0,0 0,1248 0,1248 0,26.4 -21.6,48 -48,48 z"
         style="fill:none;stroke:#000000;stroke-width:9.5999998;stroke-miterlimit:4;stroke-dasharray:none"
         id="path215" />
      <path
         d="m 42454.798,11623.12 c 0,0 -1248,0 -1248,0 -26.4,0 -48,-21.6 -48,-48 0,0 0,-1248 0,-1248 0,-26.4 21.6,-48 48,-48 0,0 1248,0 1248,0 26.4,0 48,21.6 48,48 0,0 0,1248 0,1248 0,26.4 -21.6,48 -48,48 z"
         style="fill:none;stroke:#000000;stroke-width:9.5999998;stroke-miterlimit:4;stroke-dasharray:none"
         id="path217" />
      <path
         d="m 42454.798,15280.644 c 0,0 -1248,0 -1248,0 -26.4,0 -48,-21.6 -48,-48 0,0 0,-1248 0,-1248 0,-26.4 21.6,-48 48,-48 0,0 1248,0 1248,0 26.4,0 48,21.6 48,48 0,0 0,1248 0,1248 0,26.4 -21.6,48 -48,48 z"
         style="fill:none;stroke:#000000;stroke-width:9.5999998;stroke-miterlimit:4;stroke-dasharray:none"
         id="path219" />
      <path
         d="m 29795.351,12633.444 c 0,0 -624,0 -624,0 -26.51,0 -48,-21.49 -48,-48 0,0 0,-1272 0,-1272 0,-26.51 21.49,-48 48,-48 0,0 624,0 624,0 26.509,0 48,21.49 48,48 0,0 0,1272 0,1272 0,26.51 -21.491,48 -48,48 z"
         style="fill:none;stroke:#000000;stroke-width:9.5999998;stroke-miterlimit:4;stroke-dasharray:none"
         id="path221" />
      <path
         d="m 32087.447,12633.444 c 0,0 -624,0 -624,0 -26.51,0 -48,-21.49 -48,-48 0,0 0,-1272 0,-1272 0,-26.51 21.49,-48 48,-48 0,0 624,0 624,0 26.509,0 48,21.49 48,48 0,0 0,1272 0,1272 0,26.51 -21.491,48 -48,48 z"
         style="fill:none;stroke:#000000;stroke-width:9.5999998;stroke-miterlimit:4;stroke-dasharray:none"
         id="path223" />
      <path
         d="m 41062.796,10117.072 c 0,0 0,-624.0002 0,-624.0002 0,-26.5097 21.49,-48 48,-48 0,0 1272,0 1272,0 26.51,0 48,21.4903 48,48 0,0 0,624.0002 0,624.0002 0,26.509 -21.49,48 -48,48 0,0 -1272,0 -1272,0 -26.51,0 -48,-21.491 -48,-48 z"
         style="fill:none;stroke:#000000;stroke-width:9.5999998;stroke-miterlimit:4;stroke-dasharray:none"
         id="path225" />
      <path
         d="m 41062.796,12409.168 c 0,0 0,-624 0,-624 0,-26.51 21.49,-48 48,-48 0,0 1272,0 1272,0 26.51,0 48,21.49 48,48 0,0 0,624 0,624 0,26.509 -21.49,48 -48,48 0,0 -1272,0 -1272,0 -26.51,0 -48,-21.491 -48,-48 z"
         style="fill:none;stroke:#000000;stroke-width:9.5999998;stroke-miterlimit:4;stroke-dasharray:none"
         id="path227" />
      <path
         d="m 41062.796,13774.596 c 0,0 0,-624 0,-624 0,-26.509 21.49,-48 48,-48 0,0 1272,0 1272,0 26.51,0 48,21.491 48,48 0,0 0,624 0,624 0,26.51 -21.49,48 -48,48 0,0 -1272,0 -1272,0 -26.51,0 -48,-21.49 -48,-48 z"
         style="fill:none;stroke:#000000;stroke-width:9.5999998;stroke-miterlimit:4;stroke-dasharray:none"
         id="path229" />
      <path
         d="m 41062.796,16066.692 c 0,0 0,-624 0,-624 0,-26.51 21.49,-48 48,-48 0,0 1272,0 1272,0 26.51,0 48,21.49 48,48 0,0 0,624 0,624 0,26.51 -21.49,48 -48,48 0,0 -1272,0 -1272,0 -26.51,0 -48,-21.49 -48,-48 z"
         style="fill:none;stroke:#000000;stroke-width:9.5999998;stroke-miterlimit:4;stroke-dasharray:none"
         id="path231" />
      <path
         d="m 6478.1487,14462.243 c 0,0 -624,0 -624,0 -26.5097,0 -48,-21.49 -48,-48 0,0 0,-1272 0,-1272 0,-26.51 21.4903,-48 48,-48 0,0 624,0 624,0 26.5097,0 48,21.49 48,48 0,0 0,1272 0,1272 0,26.51 -21.4903,48 -48,48 z"
         style="fill:none;stroke:#000000;stroke-width:9.5999998;stroke-miterlimit:4;stroke-dasharray:none"
         id="path233" />
      <path
         d="m 8770.2444,14462.243 c 0,0 -624,0 -624,0 -26.5096,0 -48,-21.49 -48,-48 0,0 0,-1272 0,-1272 0,-26.51 21.4904,-48 48,-48 0,0 624,0 624,0 26.5097,0 48,21.49 48,48 0,0 0,1272 0,1272 0,26.51 -21.4903,48 -48,48 z"
         style="fill:none;stroke:#000000;stroke-width:9.5999998;stroke-miterlimit:4;stroke-dasharray:none"
         id="path235" />
      <path
         d="m 13345.099,16291.044 c 0,0 -624,0 -624,0 -26.51,0 -48,-21.491 -48,-48 0,0 0,-1272 0,-1272 0,-26.51 21.49,-48 48,-48 0,0 624,0 624,0 26.51,0 48,21.49 48,48 0,0 0,1272 0,1272 0,26.509 -21.49,48 -48,48 z"
         style="fill:none;stroke:#000000;stroke-width:9.5999998;stroke-miterlimit:4;stroke-dasharray:none"
         id="path237" />
      <path
         d="m 22940.397,16291.044 c 0,0 -624,0 -624,0 -26.509,0 -48,-21.491 -48,-48 0,0 0,-1272 0,-1272 0,-26.51 21.491,-48 48,-48 0,0 624,0 624,0 26.51,0 48,21.49 48,48 0,0 0,1272 0,1272 0,26.509 -21.49,48 -48,48 z"
         style="fill:none;stroke:#000000;stroke-width:9.5999998;stroke-miterlimit:4;stroke-dasharray:none"
         id="path239" />
      <path
         d="m 11967.598,16291.043 c 0,0 -624.001,0 -624.001,0 -26.509,0 -47.999,-21.49 -47.999,-47.999 0,0 0,0 0,0 0,-26.509 -21.49,-47.999 -47.999,-47.999 0,0 -901.804,0 -901.804,0 -26.399,0 -47.999,-21.6 -47.999,-47.999 0,0 0,-1248.004 0,-1248.004 0,-26.4 21.6,-47.999 47.999,-47.999 0,0 1621.803,0 1621.803,0 26.4,0 47.999,21.599 47.999,47.999 0,0 0,72 0,72 0,0 0,1176.002 0,1176.002 0,0 0,96 0,96 0,26.509 -21.49,47.999 -47.999,47.999 z"
         style="fill:none;stroke:#000000;stroke-width:9.5999998;stroke-miterlimit:4;stroke-dasharray:none"
         id="path241" />
      <path
         d="m 23954.399,14899.042 c 0,0 0,1248 0,1248 0,26.51 -21.491,48 -48,48 0,0 0,0 0,0 -26.51,0 -48,-21.49 -48,-48 0,0 0,-1248 0,-1248 0,-26.51 21.49,-48 48,-48 0,0 0,0 0,0 26.509,0 48,21.49 48,48 z"
         style="fill:none;stroke:#000000;stroke-width:9.5999998;stroke-miterlimit:4;stroke-dasharray:none"
         id="path243" />
      <path
         d="m 25970.399,14899.042 c 0,0 0,1248 0,1248 0,26.51 -21.491,48 -48,48 0,0 0,0 0,0 -26.51,0 -48,-21.49 -48,-48 0,0 0,-1248 0,-1248 0,-26.51 21.49,-48 48,-48 0,0 0,0 0,0 26.509,0 48,21.49 48,48 z"
         style="fill:none;stroke:#000000;stroke-width:9.5999998;stroke-miterlimit:4;stroke-dasharray:none"
         id="path245" />
      <path
         d="m 26697.599,14899.042 c 0,0 0,1248 0,1248 0,26.51 -21.491,48 -48,48 0,0 0,0 0,0 -26.51,0 -48,-21.49 -48,-48 0,0 0,-1248 0,-1248 0,-26.51 21.49,-48 48,-48 0,0 0,0 0,0 26.509,0 48,21.49 48,48 z"
         style="fill:none;stroke:#000000;stroke-width:9.5999998;stroke-miterlimit:4;stroke-dasharray:none"
         id="path247" />
      <path
         d="m 28713.599,14899.042 c 0,0 0,1248 0,1248 0,26.51 -21.491,48 -48,48 0,0 0,0 0,0 -26.51,0 -48,-21.49 -48,-48 0,0 0,-1248 0,-1248 0,-26.51 21.49,-48 48,-48 0,0 0,0 0,0 26.509,0 48,21.49 48,48 z"
         style="fill:none;stroke:#000000;stroke-width:9.5999998;stroke-miterlimit:4;stroke-dasharray:none"
         id="path249" />
      <path
         d="m 28297.797,13070.243 c 0,0 0,1248 0,1248 0,26.51 -21.491,48 -48,48 0,0 0,0 0,0 -26.51,0 -48,-21.49 -48,-48 0,0 0,-1248 0,-1248 0,-26.509 21.49,-48 48,-48 0,0 0,0 0,0 26.509,0 48,21.491 48,48 z"
         style="fill:none;stroke:#000000;stroke-width:9.5999998;stroke-miterlimit:4;stroke-dasharray:none"
         id="path251" />
      <path
         d="m 27799.199,13070.243 c 0,0 0,1248 0,1248 0,26.51 -21.491,48 -48,48 0,0 0,0 0,0 -26.51,0 -48,-21.49 -48,-48 0,0 0,-1248 0,-1248 0,-26.509 21.49,-48 48,-48 0,0 0,0 0,0 26.509,0 48,21.491 48,48 z"
         style="fill:none;stroke:#000000;stroke-width:9.5999998;stroke-miterlimit:4;stroke-dasharray:none"
         id="path253" />
      <path
         d="m 29440.799,15356.243 c 0,0 0,1079.001 0,1079.001 0,26.51 -21.491,48 -48,48 0,0 0,0 0,0 -26.51,0 -48,-21.49 -48,-48 0,0 0,-1079.001 0,-1079.001 0,-26.509 21.49,-48 48,-48 0,0 0,0 0,0 26.509,0 48,21.491 48,48 z"
         style="fill:none;stroke:#000000;stroke-width:9.5999998;stroke-miterlimit:4;stroke-dasharray:none"
         id="path255" />
      <path
         d="m 33852.104,14030.313 c 0,0 249.416,-432.001 249.416,-432.001 73.901,-128 258.652,-128 332.554,0 0,0 249.419,432.001 249.419,432.001 73.902,127.998 -18.479,287.999 -166.28,287.999 0,0 -498.831,0 -498.831,0 -147.802,0 -240.177,-160.001 -166.278,-287.999 z"
         style="fill:none;stroke:#000000;stroke-width:9.5999998;stroke-miterlimit:4;stroke-dasharray:none"
         id="path257" />
      <path
         d="m 10450.799,7247.8439 c 0,0 -4905.6007,0 -4905.6007,0 -26.5097,0 -48,-21.4903 -48,-48 0,0 0,-269.9993 0,-269.9993 0,-26.5097 21.4903,-48 48,-48 0,0 4905.6007,0 4905.6007,0 26.51,0 48,21.4903 48,48 0,0 0,269.9993 0,269.9993 0,26.5097 -21.49,48 -48,48 z"
         style="fill:none;stroke:#000000;stroke-width:9.5999998;stroke-miterlimit:4;stroke-dasharray:none"
         id="path259" />
      <path
         d="m 7129.1988,6545.8393 c 0,0 0,-1247.9905 0,-1247.9905 0,-26.5097 21.4903,-48 48,-48 0,0 269.9993,0 269.9993,0 26.5097,0 48,21.4903 48,48 0,0 0,1247.9905 0,1247.9905 0,26.5097 -21.4903,48 -48,48 0,0 -269.9993,0 -269.9993,0 -26.5097,0 -48,-21.4903 -48,-48 z"
         style="fill:none;stroke:#000000;stroke-width:9.5999998;stroke-miterlimit:4;stroke-dasharray:none"
         id="path261" />
      <path
         d="m 14901.599,6545.8393 c 0,0 0,-1247.9905 0,-1247.9905 0,-26.5097 21.49,-48 48,-48 0,0 269.999,0 269.999,0 26.51,0 48,21.4903 48,48 0,0 0,1247.9905 0,1247.9905 0,26.5097 -21.49,48 -48,48 0,0 -269.999,0 -269.999,0 -26.51,0 -48,-21.4903 -48,-48 z"
         style="fill:none;stroke:#000000;stroke-width:9.5999998;stroke-miterlimit:4;stroke-dasharray:none"
         id="path263" />
      <path
         d="m 22673.975,6545.8393 c 0,0 0,-1247.9905 0,-1247.9905 0,-26.5097 21.491,-48 48,-48 0,0 270,0 270,0 26.509,0 48,21.4903 48,48 0,0 0,1247.9905 0,1247.9905 0,26.5097 -21.491,48 -48,48 0,0 -270,0 -270,0 -26.509,0 -48,-21.4903 -48,-48 z"
         style="fill:none;stroke:#000000;stroke-width:9.5999998;stroke-miterlimit:4;stroke-dasharray:none"
         id="path265" />
      <path
         d="m 30446.375,6545.8393 c 0,0 0,-1247.9905 0,-1247.9905 0,-26.5097 21.491,-48 48,-48 0,0 270,0 270,0 26.509,0 48,21.4903 48,48 0,0 0,1247.9905 0,1247.9905 0,26.5097 -21.491,48 -48,48 0,0 -270,0 -270,0 -26.509,0 -48,-21.4903 -48,-48 z"
         style="fill:none;stroke:#000000;stroke-width:9.5999998;stroke-miterlimit:4;stroke-dasharray:none"
         id="path267" />
      <path
         d="m 32732.399,6545.8393 c 0,0 0,-1247.9905 0,-1247.9905 0,-26.5097 21.49,-48 48,-48 0,0 269.999,0 269.999,0 26.51,0 48,21.4903 48,48 0,0 0,1247.9905 0,1247.9905 0,26.5097 -21.49,48 -48,48 0,0 -269.999,0 -269.999,0 -26.51,0 -48,-21.4903 -48,-48 z"
         style="fill:none;stroke:#000000;stroke-width:9.5999998;stroke-miterlimit:4;stroke-dasharray:none"
         id="path269" />
      <path
         d="m 33434.403,12830.244 c 0,0 1247.991,0 1247.991,0 26.51,0 48,21.49 48,48 0,0 0,0 0,0 0,26.509 -21.49,48 -48,48 0,0 -1247.991,0 -1247.991,0 -26.509,0 -48,-21.491 -48,-48 0,0 0,0 0,0 0,-26.51 21.491,-48 48,-48 z"
         style="fill:none;stroke:#000000;stroke-width:9.5999998;stroke-miterlimit:4;stroke-dasharray:none"
         id="path271" />
      <path
         d="m 31605.603,13095.446 c 0,0 1247.991,0 1247.991,0 26.51,0 48,21.49 48,48 0,0 0,0 0,0 0,26.509 -21.49,48 -48,48 0,0 -1247.991,0 -1247.991,0 -26.509,0 -48,-21.491 -48,-48 0,0 0,0 0,0 0,-26.51 21.491,-48 48,-48 z"
         style="fill:none;stroke:#000000;stroke-width:9.5999998;stroke-miterlimit:4;stroke-dasharray:none"
         id="path273" />
      <path
         d="m 30313.797,13070.247 c 0,0 0,1247.99 0,1247.99 0,26.51 -21.49,48 -48,48 0,0 0,0 0,0 -26.51,0 -48,-21.49 -48,-48 0,0 0,-1247.99 0,-1247.99 0,-26.51 21.49,-48 48,-48 0,0 0,0 0,0 26.51,0 48,21.49 48,48 z"
         style="fill:none;stroke:#000000;stroke-width:9.5999998;stroke-miterlimit:4;stroke-dasharray:none"
         id="path275" />
      <path
         d="m 7723.7962,14899.048 c 0,0 0,1247.99 0,1247.99 0,26.51 -21.4903,48 -48,48 0,0 -41.3993,0 -41.3993,0 -26.5097,0 -48,-21.49 -48,-48 0,0 0,-1247.99 0,-1247.99 0,-26.51 21.4903,-48 48,-48 0,0 41.3993,0 41.3993,0 26.5097,0 48,21.49 48,48 z"
         style="fill:none;stroke:#000000;stroke-width:9.5999998;stroke-miterlimit:4;stroke-dasharray:none"
         id="path277" />
      <path
         d="m 9323.9986,13070.248 c 0,0 0,1247.991 0,1247.991 0,26.509 -21.4903,47.999 -47.9999,47.999 0,0 -10e-5,0 -10e-5,0 -26.5097,0 -48,-21.49 -48,-47.999 0,0 0,-1247.991 0,-1247.991 0,-26.51 21.4903,-48 48,-48 0,0 10e-5,0 10e-5,0 26.5096,0 47.9999,21.49 47.9999,48 z"
         style="fill:none;stroke:#000000;stroke-width:9.5999998;stroke-miterlimit:4;stroke-dasharray:none"
         id="path279" />
      <path
         d="m 8436.899,11241.448 c 0,0 0,1247.991 0,1247.991 0,26.509 -21.4903,47.999 -48,47.999 0,0 -10e-5,0 -10e-5,0 -26.5096,0 -47.9999,-21.49 -47.9999,-47.999 0,0 0,-1247.991 0,-1247.991 0,-26.51 21.4903,-48 47.9999,-48 0,0 10e-5,0 10e-5,0 26.5097,0 48,21.49 48,48 z"
         style="fill:none;stroke:#000000;stroke-width:9.5999998;stroke-miterlimit:4;stroke-dasharray:none"
         id="path281" />
      <path
         d="m 7910.9983,11241.448 c 0,0 0,1247.991 0,1247.991 0,26.509 -21.4903,47.999 -47.9999,47.999 0,0 -1e-4,0 -1e-4,0 -26.5097,0 -48,-21.49 -48,-47.999 0,0 0,-1247.991 0,-1247.991 0,-26.51 21.4903,-48 48,-48 0,0 1e-4,0 1e-4,0 26.5096,0 47.9999,21.49 47.9999,48 z"
         style="fill:none;stroke:#000000;stroke-width:9.5999998;stroke-miterlimit:4;stroke-dasharray:none"
         id="path283" />
      <path
         d="m 7681.8059,9412.5526 c 0,0 0,1247.9904 0,1247.9904 0,26.51 -21.4903,48 -47.9999,48 0,0 -10e-5,0 -10e-5,0 -26.5097,0 -48,-21.49 -48,-48 0,0 0,-1247.9904 0,-1247.9904 0,-26.5096 21.4903,-47.9999 48,-47.9999 0,0 10e-5,0 10e-5,0 26.5096,0 47.9999,21.4903 47.9999,47.9999 z"
         style="fill:none;stroke:#000000;stroke-width:9.5999998;stroke-miterlimit:4;stroke-dasharray:none"
         id="path285" />
      <path
         d="m 5666.398,9412.5526 c 0,0 0,1247.9904 0,1247.9904 0,26.51 -21.4903,48 -48,48 0,0 -1e-4,0 -1e-4,0 -26.5096,0 -47.9999,-21.49 -47.9999,-48 0,0 0,-1247.9904 0,-1247.9904 0,-26.5096 21.4903,-47.9999 47.9999,-47.9999 0,0 1e-4,0 1e-4,0 26.5097,0 48,21.4903 48,47.9999 z"
         style="fill:none;stroke:#000000;stroke-width:9.5999998;stroke-miterlimit:4;stroke-dasharray:none"
         id="path287" />
      <path
         d="m 7952.3983,9412.5526 c 0,0 0,1247.9904 0,1247.9904 0,26.51 -21.4903,48 -47.9999,48 0,0 -1e-4,0 -1e-4,0 -26.5097,0 -48,-21.49 -48,-48 0,0 0,-1247.9904 0,-1247.9904 0,-26.5096 21.4903,-47.9999 48,-47.9999 0,0 1e-4,0 1e-4,0 26.5096,0 47.9999,21.4903 47.9999,47.9999 z"
         style="fill:none;stroke:#000000;stroke-width:9.5999998;stroke-miterlimit:4;stroke-dasharray:none"
         id="path289" />
      <path
         d="m 34682.395,14823.438 c 0,0 -1252.796,0 -1252.796,0 -26.51,0 -48,-21.49 -48,-48 0,0 0,-1247.991 0,-1247.991 0,-26.51 -21.492,-47.999 -48.002,-47.999 -26.508,0 -47.999,21.489 -47.999,47.999 0,0 0,1247.995 0,1247.995 0,79.53 64.471,144.001 144.001,144 0,0 1252.796,0 1252.796,0 26.509,0 48,-21.491 48,-48 0,0 0,0 0,0 0,-26.51 -21.491,-48.001 -48,-48.001 z"
         style="fill:none;stroke:#000000;stroke-width:9.5999998;stroke-miterlimit:4;stroke-dasharray:none"
         id="path291" />
      <path
         d="m 29776.801,14823.438 c 0,0 1252.796,0 1252.796,0 26.509,0 48,-21.49 48,-48 0,0 0,-1247.991 0,-1247.991 0,-26.51 21.491,-47.999 48.001,-47.999 26.508,0 47.999,21.489 47.999,47.999 0,0 0,1247.995 0,1247.995 0,79.53 -64.471,144.001 -144,144 0,0 -1252.797,0 -1252.797,0 -26.509,0 -48,-21.491 -48,-48 0,0 0,0 0,0 0,-26.51 21.491,-48.001 48.001,-48.001 z"
         style="fill:none;stroke:#000000;stroke-width:9.5999998;stroke-miterlimit:4;stroke-dasharray:none"
         id="path293" />
      <path
         d="m 32732.399,12489.442 c 0,0 0,-4905.5981 0,-4905.5981 0,-26.5097 21.49,-48 48,-48 0,0 269.999,0 269.999,0 26.51,0 48,21.4903 48,48 0,0 0,4905.5981 0,4905.5981 0,26.51 -21.49,48 -48,48 0,0 -269.999,0 -269.999,0 -26.51,0 -48,-21.49 -48,-48 z"
         style="fill:none;stroke:#000000;stroke-width:9.5999998;stroke-miterlimit:4;stroke-dasharray:none"
         id="path295" />
      <path
         d="m 35018.399,16243.042 c 0,0 0,-8659.1981 0,-8659.1981 0,-26.5097 21.49,-48 48,-48 0,0 269.999,0 269.999,0 26.51,0 48,21.4903 48,48 0,0 0,8659.1981 0,8659.1981 0,26.51 -21.49,48 -48,48 0,0 -269.999,0 -269.999,0 -26.51,0 -48,-21.49 -48,-48 z"
         style="fill:none;stroke:#000000;stroke-width:9.5999998;stroke-miterlimit:4;stroke-dasharray:none"
         id="path297" />
      <path
         d="m 35018.399,6545.8393 c 0,0 0,-1247.9905 0,-1247.9905 0,-26.5097 21.49,-48 48,-48 0,0 269.999,0 269.999,0 26.51,0 48,21.4903 48,48 0,0 0,1247.9905 0,1247.9905 0,26.5097 -21.49,48 -48,48 0,0 -269.999,0 -269.999,0 -26.51,0 -48,-21.4903 -48,-48 z"
         style="fill:none;stroke:#000000;stroke-width:9.5999998;stroke-miterlimit:4;stroke-dasharray:none"
         id="path299" />
      <path
         d="m 15937.199,7247.8439 c 0,0 -4905.601,0 -4905.601,0 -26.509,0 -48,-21.4903 -48,-48 0,0 0,-269.9993 0,-269.9993 0,-26.5097 21.491,-48 48,-48 0,0 4905.601,0 4905.601,0 26.51,0 48,21.4903 48,48 0,0 0,269.9993 0,269.9993 0,26.5097 -21.49,48 -48,48 z"
         style="fill:none;stroke:#000000;stroke-width:9.5999998;stroke-miterlimit:4;stroke-dasharray:none"
         id="path301" />
      <path
         d="m 21423.599,7247.8439 c 0,0 -4905.601,0 -4905.601,0 -26.509,0 -48,-21.4903 -48,-48 0,0 0,-269.9993 0,-269.9993 0,-26.5097 21.491,-48 48,-48 0,0 4905.601,0 4905.601,0 26.51,0 48,21.4903 48,48 0,0 0,269.9993 0,269.9993 0,26.5097 -21.49,48 -48,48 z"
         style="fill:none;stroke:#000000;stroke-width:9.5999998;stroke-miterlimit:4;stroke-dasharray:none"
         id="path303" />
      <path
         d="m 26909.999,7247.8439 c 0,0 -4905.601,0 -4905.601,0 -26.509,0 -48,-21.4903 -48,-48 0,0 0,-269.9993 0,-269.9993 0,-26.5097 21.491,-48 48,-48 0,0 4905.601,0 4905.601,0 26.51,0 48,21.4903 48,48 0,0 0,269.9993 0,269.9993 0,26.5097 -21.49,48 -48,48 z"
         style="fill:none;stroke:#000000;stroke-width:9.5999998;stroke-miterlimit:4;stroke-dasharray:none"
         id="path305" />
      <path
         d="m 32394.045,7247.8439 c 0,0 -4905.601,0 -4905.601,0 -26.51,0 -48,-21.4903 -48,-48 0,0 0,-269.9993 0,-269.9993 0,-26.5097 21.49,-48 48,-48 0,0 4905.601,0 4905.601,0 26.509,0 48,21.4903 48,48 0,0 0,269.9993 0,269.9993 0,26.5097 -21.491,48 -48,48 z"
         style="fill:none;stroke:#000000;stroke-width:9.5999998;stroke-miterlimit:4;stroke-dasharray:none"
         id="path307" />
      <path
         d="m 33050.398,7247.8439 c 0,0 -269.999,0 -269.999,0 -26.51,0 -48,-21.4903 -48,-48 0,0 0,-269.9993 0,-269.9993 0,-26.5097 21.49,-48 48,-48 0,0 269.999,0 269.999,0 26.51,0 48,21.4903 48,48 0,0 0,269.9993 0,269.9993 0,26.5097 -21.49,48 -48,48 z"
         style="fill:none;stroke:#000000;stroke-width:9.5999998;stroke-miterlimit:4;stroke-dasharray:none"
         id="path309" />
      <path
         d="m 35336.398,7247.8439 c 0,0 -269.999,0 -269.999,0 -26.51,0 -48,-21.4903 -48,-48 0,0 0,-269.9993 0,-269.9993 0,-26.5097 21.49,-48 48,-48 0,0 269.999,0 269.999,0 26.51,0 48,21.4903 48,48 0,0 0,269.9993 0,269.9993 0,26.5097 -21.49,48 -48,48 z"
         style="fill:none;stroke:#000000;stroke-width:9.5999998;stroke-miterlimit:4;stroke-dasharray:none"
         id="path311" />
      <path
         d="m 34682.399,7247.8439 c 0,0 -1248.001,0 -1248.001,0 -26.509,0 -48,-21.4903 -48,-48 0,0 0,-269.9993 0,-269.9993 0,-26.5097 21.491,-48 48,-48 0,0 1248.001,0 1248.001,0 26.51,0 48,21.4903 48,48 0,0 0,269.9993 0,269.9993 0,26.5097 -21.49,48 -48,48 z"
         style="fill:none;stroke:#000000;stroke-width:9.5999998;stroke-miterlimit:4;stroke-dasharray:none"
         id="path313" />
      <path
         d="m 42454.774,7247.8439 c 0,0 -3076.801,0 -3076.801,0 -26.509,0 -48,-21.4903 -48,-48 0,0 0,-269.9993 0,-269.9993 0,-26.5097 21.491,-48 48,-48 0,0 3076.801,0 3076.801,0 26.51,0 48,21.4903 48,48 0,0 0,269.9993 0,269.9993 0,26.5097 -21.49,48 -48,48 z"
         style="fill:none;stroke:#000000;stroke-width:9.5999998;stroke-miterlimit:4;stroke-dasharray:none"
         id="path315" />
      <path
         d="m 38797.199,7247.8439 c 0,0 -3076.801,0 -3076.801,0 -26.509,0 -48,-21.4903 -48,-48 0,0 0,-269.9993 0,-269.9993 0,-26.5097 21.491,-48 48,-48 0,0 3076.801,0 3076.801,0 26.51,0 48,21.4903 48,48 0,0 0,269.9993 0,269.9993 0,26.5097 -21.49,48 -48,48 z"
         style="fill:none;stroke:#000000;stroke-width:9.5999998;stroke-miterlimit:4;stroke-dasharray:none"
         id="path317" />
      <path
         d="m 16085.995,14899.041 c 0,0 0,456.003 0,456.003 0,26.51 -21.49,48 -47.999,48 0,0 -2212.899,0 -2212.899,0 -26.509,0 -47.999,-21.49 -47.999,-48 0,0 0,-264.002 0,-264.002 0,-26.51 -21.49,-47.999 -47.999,-47.999 0,0 0,0 0,0 -26.509,0 -47.999,21.489 -47.999,47.999 0,0 0,864.001 0,864.001 0,26.509 21.49,47.999 47.999,47.999 0,0 0,0 0,0 26.509,0 47.999,-21.49 47.999,-47.999 0,0 0,-264.001 0,-264.001 0,-26.509 21.49,-47.999 47.999,-47.999 0,0 2212.899,0 2212.899,0 26.509,0 47.999,21.49 47.999,47.999 0,0 0,456.001 0,456.001 0,26.51 21.49,47.999 47.999,47.999 0,0 0,0 0,0 26.509,0 47.999,-21.489 47.999,-47.999 0,0 0,-1248.002 0,-1248.002 0,-26.509 -21.49,-47.999 -47.999,-47.999 0,0 0,0 0,0 -26.509,0 -47.999,21.49 -47.999,47.999 z"
         style="fill:none;stroke:#000000;stroke-width:9.5999998;stroke-miterlimit:4;stroke-dasharray:none"
         id="path319" />
      <path
         d="m 21884.399,15091.043 c 0,0 0,264 0,264 0,26.51 -21.491,48.001 -48.001,48.001 0,0 -2904.6,0 -2904.6,0 -26.509,0 -48,-21.491 -48,-48.001 0,0 0,-456.001 0,-456.001 0,-26.51 -21.49,-48 -48,-48 0,0 0,0 0,0 -26.51,0 -48,21.49 -48,48 0,0 0,1248 0,1248 0,26.51 21.49,48 48,48 0,0 0,0 0,0 26.51,0 48,-21.49 48,-48 0,0 0,-455.999 0,-455.999 0,-26.51 21.491,-48 48,-48 0,0 2904.6,0 2904.6,0 26.51,0 48.001,21.49 48.001,48 0,0 0,263.999 0,263.999 0,26.509 21.49,48 48,48 0,0 0,0 0,0 26.51,0 48,-21.491 48,-48 0,0 0,-863.999 0,-863.999 0,-26.51 -21.49,-48 -48,-48 0,0 0,0 0,0 -26.51,0 -48,21.49 -48,48 z"
         style="fill:none;stroke:#000000;stroke-width:9.5999998;stroke-miterlimit:4;stroke-dasharray:none"
         id="path321" />
      <path
         d="m 28713.599,11241.443 c 0,0 0,1248 0,1248 0,26.51 -21.491,48 -48,48 0,0 0,0 0,0 -26.51,0 -48,-21.49 -48,-48 0,0 0,-1248 0,-1248 0,-26.509 21.49,-48 48,-48 0,0 0,0 0,0 26.509,0 48,21.491 48,48 z"
         style="fill:none;stroke:#000000;stroke-width:9.5999998;stroke-miterlimit:4;stroke-dasharray:none"
         id="path323" />
      <path
         d="m 30085.199,9412.5479 c 0,0 0,1248.0001 0,1248.0001 0,26.51 -21.49,48 -48,48 0,0 0,0 0,0 -26.51,0 -48,-21.49 -48,-48 0,0 0,-1248.0001 0,-1248.0001 0,-26.5097 21.49,-48 48,-48 0,0 0,0 0,0 26.51,0 48,21.4903 48,48 z"
         style="fill:none;stroke:#000000;stroke-width:9.5999998;stroke-miterlimit:4;stroke-dasharray:none"
         id="path325" />
      <path
         d="m 30355.197,9412.5479 c 0,0 0,1248.0001 0,1248.0001 0,26.51 -21.49,48 -48,48 0,0 0,0 0,0 -26.509,0 -48,-21.49 -48,-48 0,0 0,-1248.0001 0,-1248.0001 0,-26.5097 21.491,-48 48,-48 0,0 0,0 0,0 26.51,0 48,21.4903 48,48 z"
         style="fill:none;stroke:#000000;stroke-width:9.5999998;stroke-miterlimit:4;stroke-dasharray:none"
         id="path327" />
      <path
         d="m 32371.196,9412.5479 c 0,0 0,1248.0001 0,1248.0001 0,26.51 -21.49,48 -48,48 0,0 0,0 0,0 -26.51,0 -48,-21.49 -48,-48 0,0 0,-1248.0001 0,-1248.0001 0,-26.5097 21.49,-48 48,-48 0,0 0,0 0,0 26.51,0 48,21.4903 48,48 z"
         style="fill:none;stroke:#000000;stroke-width:9.5999998;stroke-miterlimit:4;stroke-dasharray:none"
         id="path329" />
      <path
         d="m 7427.3738,4673.7953 c 0,63.6232 -51.5768,115.2 -115.2,115.2 -63.6232,0 -115.2,-51.5768 -115.2,-115.2 0,-63.6232 51.5768,-115.2 115.2,-115.2 63.6232,0 115.2,51.5768 115.2,115.2 z"
         style="fill:none;stroke:#000000;stroke-width:9.5999998;stroke-miterlimit:4;stroke-dasharray:none"
         id="path331" />
      <path
         d="m 10736.327,16771.244 c 0,63.623 -51.576,115.2 -115.2,115.2 -63.623,0 -115.2,-51.577 -115.2,-115.2 0,-63.623 51.577,-115.2 115.2,-115.2 63.624,0 115.2,51.577 115.2,115.2 z"
         style="fill:none;stroke:#000000;stroke-width:9.5999998;stroke-miterlimit:4;stroke-dasharray:none"
         id="path333" />
      <path
         d="m 24002.974,16771.244 c 0,63.623 -51.577,115.2 -115.2,115.2 -63.623,0 -115.2,-51.577 -115.2,-115.2 0,-63.623 51.577,-115.2 115.2,-115.2 63.623,0 115.2,51.577 115.2,115.2 z"
         style="fill:none;stroke:#000000;stroke-width:9.5999998;stroke-miterlimit:4;stroke-dasharray:none"
         id="path335" />
      <path
         d="m 37413.624,16771.244 c 0,63.623 -51.577,115.2 -115.2,115.2 -63.623,0 -115.2,-51.577 -115.2,-115.2 0,-63.623 51.577,-115.2 115.2,-115.2 63.623,0 115.2,51.577 115.2,115.2 z"
         style="fill:none;stroke:#000000;stroke-width:9.5999998;stroke-miterlimit:4;stroke-dasharray:none"
         id="path337" />
      <path
         d="m 15204.594,4673.7953 c 0,63.6232 -51.577,115.2 -115.2,115.2 -63.623,0 -115.2,-51.5768 -115.2,-115.2 0,-63.6232 51.577,-115.2 115.2,-115.2 63.623,0 115.2,51.5768 115.2,115.2 z"
         style="fill:none;stroke:#000000;stroke-width:9.5999998;stroke-miterlimit:4;stroke-dasharray:none"
         id="path339" />
      <path
         d="m 22972.175,4673.7953 c 0,63.6232 -51.577,115.2 -115.2,115.2 -63.623,0 -115.2,-51.5768 -115.2,-115.2 0,-63.6232 51.577,-115.2 115.2,-115.2 63.623,0 115.2,51.5768 115.2,115.2 z"
         style="fill:none;stroke:#000000;stroke-width:9.5999998;stroke-miterlimit:4;stroke-dasharray:none"
         id="path341" />
      <path
         d="m 30744.575,4673.7953 c 0,63.6232 -51.577,115.2 -115.2,115.2 -63.623,0 -115.2,-51.5768 -115.2,-115.2 0,-63.6232 51.577,-115.2 115.2,-115.2 63.623,0 115.2,51.5768 115.2,115.2 z"
         style="fill:none;stroke:#000000;stroke-width:9.5999998;stroke-miterlimit:4;stroke-dasharray:none"
         id="path343" />
      <path
         d="m 41031.574,4673.7953 c 0,63.6232 -51.577,115.2 -115.2,115.2 -63.623,0 -115.2,-51.5768 -115.2,-115.2 0,-63.6232 51.577,-115.2 115.2,-115.2 63.623,0 115.2,51.5768 115.2,115.2 z"
         style="fill:none;stroke:#000000;stroke-width:9.5999998;stroke-miterlimit:4;stroke-dasharray:none"
         id="path345" />
      <path
         d="m 42646.798,4961.7953 c 0,0 -578.424,0 -578.424,0 0,0 -366.08,0 -366.08,0 -56.976,0 -111.009,-25.3048 -147.488,-69.0717 0,0 -364.945,-437.8565 -364.945,-437.8565 -36.479,-43.7669 -90.512,-69.0717 -147.488,-69.0717 0,0 -252.143,0 -252.143,0 -56.988,0 -111.031,25.3151 -147.509,69.0972 0,0 -364.775,437.8055 -364.775,437.8055 -36.478,43.7821 -90.521,69.0972 -147.509,69.0972 0,0 -366.063,0 -366.063,0 0,0 -7982.998,0 -7982.998,0 0,0 -366.082,0 -366.082,0 -56.976,0 -111.009,-25.3048 -147.488,-69.0717 0,0 -364.945,-437.8565 -364.945,-437.8565 -36.479,-43.7669 -90.512,-69.0717 -147.488,-69.0717 0,0 -252.141,0 -252.141,0 -56.988,0 -111.031,25.3151 -147.509,69.0972 0,0 -364.775,437.8055 -364.775,437.8055 -36.478,43.7821 -90.521,69.0972 -147.509,69.0972 0,0 -366.063,0 -366.063,0 0,0 -5468.4,0 -5468.4,0 0,0 -366.082,0 -366.082,0 -56.976,0 -111.009,-25.3048 -147.488,-69.0717 0,0 -364.945,-437.8565 -364.945,-437.8565 -36.479,-43.7669 -90.512,-69.0717 -147.488,-69.0717 0,0 -252.141,0 -252.141,0 -56.988,0 -111.031,25.3151 -147.509,69.0972 0,0 -364.775,437.8055 -364.775,437.8055 -36.478,43.7821 -90.521,69.0972 -147.509,69.0972 0,0 -366.063,0 -366.063,0 0,0 -5463.582,0 -5463.582,0 0,0 -366.079,0 -366.079,0 -56.976,0 -111.009,-25.3046 -147.488,-69.0713 0,0 -364.948,-437.8573 -364.948,-437.8573 -36.479,-43.7667 -90.512,-69.0713 -147.487,-69.0713 0,0 -252.142,0 -252.142,0 -56.988,0 -111.03,25.3151 -147.509,69.0972 0,0 -364.774,437.8055 -364.774,437.8055 -36.479,43.7821 -90.522,69.0972 -147.509,69.0972 0,0 -366.064,0 -366.064,0 0,0 -5473.1375,0 -5473.1375,0 0,0 -366.0793,0 -366.0793,0 -56.9757,0 -111.0085,-25.3046 -147.4874,-69.0712 0,0 -364.9484,-437.8575 -364.9484,-437.8575 -36.4789,-43.7666 -90.5117,-69.0712 -147.4874,-69.0712 0,0 -252.1418,0 -252.1418,0 -56.9875,0 -111.0303,25.3151 -147.509,69.0972 0,0 -364.7741,437.8055 -364.7741,437.8055 -36.4788,43.7821 -90.5216,69.0972 -147.5091,69.0972 0,0 -366.0635,0 -366.0635,0 0,0 -807.0572,0 -807.0572,0 -79.529,0 -144,64.471 -144,144 0,0 0,5703.3237 0,5703.3237 0,72.899 43.7251,138.685 110.9376,166.912 0,0 2e-4,0 2e-4,0 71.2842,29.936 117.6581,99.708 117.6581,177.023 0,0 0,5186.19 0,5186.19 0,79.529 64.471,144 144,144 0,0 3887.3322,0 3887.3322,0 0,0 366.0635,0 366.0635,0 56.9875,0 111.0303,25.315 147.5091,69.097 0,0 364.774,437.806 364.774,437.806 36.479,43.782 90.522,69.097 147.509,69.097 0,0 252.142,0 252.142,0 56.975,0 111.008,-25.305 147.487,-69.072 0,0 364.946,-437.856 364.946,-437.856 36.479,-43.767 90.512,-69.072 147.488,-69.072 0,0 366.081,0 366.081,0 0,0 7250.555,0 7304.709,0 0,0 3657.938,0 3657.938,0 0,0 366.063,0 366.063,0 56.988,0 111.031,25.315 147.51,69.097 0,0 364.774,437.806 364.774,437.806 36.478,43.782 90.521,69.097 147.509,69.097 0,0 252.141,0 252.141,0 56.976,0 111.009,-25.305 147.488,-69.072 0,0 364.945,-437.856 364.945,-437.856 36.479,-43.767 90.512,-69.072 147.488,-69.072 0,0 366.082,0 366.082,0 0,0 4017.397,0 4017.397,0 73.226,0 140.077,41.652 172.348,107.384 0,0 119.029,242.442 119.029,242.442 32.272,65.732 99.123,107.384 172.35,107.384 0,0 5417.512,-0.01 5417.512,-0.01 73.243,0 140.105,-41.671 172.369,-107.425 0,0 118.913,-242.35 118.913,-242.35 32.263,-65.754 99.125,-107.425 172.368,-107.425 0,0 744.364,0 744.364,0 0,0 366.064,0 366.064,0 56.987,0 111.03,25.315 147.509,69.097 0,0 364.774,437.806 364.774,437.806 36.479,43.782 90.521,69.097 147.509,69.097 0,0 252.138,0 252.138,0 56.976,0 111.008,-25.304 147.487,-69.071 0,0 364.951,-437.858 364.951,-437.858 36.479,-43.766 90.512,-69.071 147.487,-69.071 0,0 366.081,0 366.081,0 0,0 4196.374,0 4196.374,0 79.529,0 144,-64.471 144,-144 0,0 0,-11233.4487 0,-11233.4487 0,-79.529 -64.471,-144 -144,-144 z"
         style="fill:none;stroke:#000000;stroke-width:9.5999998;stroke-miterlimit:4;stroke-dasharray:none"
         id="path347" />
      <path
         d="m 15420.598,5057.7953 c 0,0 -672,0 -672,0 -26.509,0 -48,-21.4903 -48,-47.9999 0,0 0,-1e-4 0,-1e-4 0,-26.5097 21.491,-48 48,-48 0,0 672,0 672,0 26.51,0 48,21.4903 48,48 0,0 0,1e-4 0,1e-4 0,26.5096 -21.49,47.9999 -48,47.9999 z"
         style="fill:none;stroke:#000000;stroke-width:9.5999998;stroke-miterlimit:4;stroke-dasharray:none"
         id="path349" />
      <path
         d="m 23192.975,5057.7953 c 0,0 -672,0 -672,0 -26.51,0 -48,-21.4903 -48,-47.9999 0,0 0,-1e-4 0,-1e-4 0,-26.5097 21.49,-48 48,-48 0,0 672,0 672,0 26.51,0 48,21.4903 48,48 0,0 0,1e-4 0,1e-4 0,26.5096 -21.49,47.9999 -48,47.9999 z"
         style="fill:none;stroke:#000000;stroke-width:9.5999998;stroke-miterlimit:4;stroke-dasharray:none"
         id="path351" />
      <path
         d="m 30965.375,5057.7953 c 0,0 -672,0 -672,0 -26.51,0 -48,-21.4903 -48,-47.9999 0,0 0,-1e-4 0,-1e-4 0,-26.5097 21.49,-48 48,-48 0,0 672,0 672,0 26.51,0 48,21.4903 48,48 0,0 0,1e-4 0,1e-4 0,26.5096 -21.49,47.9999 -48,47.9999 z"
         style="fill:none;stroke:#000000;stroke-width:9.5999998;stroke-miterlimit:4;stroke-dasharray:none"
         id="path353" />
      <path
         d="m 41252.374,5057.7953 c 0,0 -672,0 -672,0 -26.51,0 -48,-21.4903 -48,-47.9999 0,0 0,-1e-4 0,-1e-4 0,-26.5097 21.49,-48 48,-48 0,0 672,0 672,0 26.51,0 48,21.4903 48,48 0,0 0,1e-4 0,1e-4 0,26.5096 -21.49,47.9999 -48,47.9999 z"
         style="fill:none;stroke:#000000;stroke-width:9.5999998;stroke-miterlimit:4;stroke-dasharray:none"
         id="path355" />
      <path
         d="m 7648.1739,5057.7953 c 0,0 -672.0001,0 -672.0001,0 -26.5097,0 -48,-21.4903 -48,-47.9999 0,0 0,-1e-4 0,-1e-4 0,-26.5097 21.4903,-48 48,-48 0,0 672.0001,0 672.0001,0 26.5096,0 47.9999,21.4903 47.9999,48 0,0 0,1e-4 0,1e-4 0,26.5096 -21.4903,47.9999 -47.9999,47.9999 z"
         style="fill:none;stroke:#000000;stroke-width:9.5999998;stroke-miterlimit:4;stroke-dasharray:none"
         id="path357" />
      <path
         d="m 37634.424,16483.244 c 0,0 -672,0 -672,0 -26.51,0 -48,-21.49 -48,-48 0,0 0,0 0,0 0,-26.51 21.49,-48 48,-48 0,0 672,0 672,0 26.51,0 48,21.49 48,48 0,0 0,0 0,0 0,26.51 -21.49,48 -48,48 z"
         style="fill:none;stroke:#000000;stroke-width:9.5999998;stroke-miterlimit:4;stroke-dasharray:none"
         id="path359" />
      <path
         d="m 24223.774,16483.244 c 0,0 -672,0 -672,0 -26.51,0 -48,-21.49 -48,-48 0,0 0,0 0,0 0,-26.51 21.49,-48 48,-48 0,0 672,0 672,0 26.51,0 48,21.49 48,48 0,0 0,0 0,0 0,26.51 -21.49,48 -48,48 z"
         style="fill:none;stroke:#000000;stroke-width:9.5999998;stroke-miterlimit:4;stroke-dasharray:none"
         id="path361" />
      <path
         d="m 10957.127,16483.244 c 0,0 -672,0 -672,0 -26.509,0 -48,-21.49 -48,-48 0,0 0,0 0,0 0,-26.51 21.491,-48 48,-48 0,0 672,0 672,0 26.51,0 48,21.49 48,48 0,0 0,0 0,0 0,26.51 -21.49,48 -48,48 z"
         style="fill:none;stroke:#000000;stroke-width:9.5999998;stroke-miterlimit:4;stroke-dasharray:none"
         id="path363" />
    </g>
  </g>
  <desc
     id="desc367">austin_plate.dxf - scale = 25.400000, origin = (0.000000, 0.000000), method = file</desc>
</svg>
