<?xml version="1.0" encoding="UTF-8" standalone="no"?>
<svg
   width="92.768921mm"
   height="1.5mm"
   viewBox="0 0 92.76892 1.5"
   version="1.1"
   id="svg8"
   inkscape:version="1.2.1 (9c6d41e410, 2022-07-14, custom)"
   sodipodi:docname="austin_label.svg"
   inkscape:export-filename="/home/alvaro/Desktop/AcheronProject/Austin/graphics/austinLabel.png"
   inkscape:export-xdpi="2000"
   inkscape:export-ydpi="2000"
   xmlns:inkscape="http://www.inkscape.org/namespaces/inkscape"
   xmlns:sodipodi="http://sodipodi.sourceforge.net/DTD/sodipodi-0.dtd"
   xmlns="http://www.w3.org/2000/svg"
   xmlns:svg="http://www.w3.org/2000/svg"
   xmlns:rdf="http://www.w3.org/1999/02/22-rdf-syntax-ns#"
   xmlns:cc="http://creativecommons.org/ns#"
   xmlns:dc="http://purl.org/dc/elements/1.1/">
  <defs
     id="defs2">
    <rect
       x="-81.43058"
       y="-63.900299"
       width="335.48981"
       height="16.770077"
       id="rect487" />
    <rect
       x="-81.43058"
       y="-63.900299"
       width="335.48981"
       height="16.770077"
       id="rect545" />
    <rect
       x="-81.43058"
       y="-63.900299"
       width="335.48981"
       height="16.770077"
       id="rect576" />
  </defs>
  <sodipodi:namedview
     id="base"
     pagecolor="#ffffff"
     bordercolor="#666666"
     borderopacity="1.0"
     inkscape:pageopacity="0.0"
     inkscape:pageshadow="2"
     inkscape:zoom="2.6607423"
     inkscape:cx="218.73595"
     inkscape:cy="-5.825442"
     inkscape:document-units="mm"
     inkscape:current-layer="layer1"
     showgrid="false"
     inkscape:snap-center="true"
     inkscape:window-width="1920"
     inkscape:window-height="1043"
     inkscape:window-x="1920"
     inkscape:window-y="200"
     inkscape:window-maximized="1"
     fit-margin-top="0"
     fit-margin-left="0"
     fit-margin-right="0"
     fit-margin-bottom="0"
     inkscape:document-rotation="0"
     inkscape:showpageshadow="2"
     inkscape:pagecheckerboard="0"
     inkscape:deskcolor="#d1d1d1" />
  <metadata
     id="metadata5">
    <rdf:RDF>
      <cc:Work
         rdf:about="">
        <dc:format>image/svg+xml</dc:format>
        <dc:type
           rdf:resource="http://purl.org/dc/dcmitype/StillImage" />
        <dc:title />
      </cc:Work>
    </rdf:RDF>
  </metadata>
  <g
     inkscape:label="Layer 1"
     inkscape:groupmode="layer"
     id="layer1"
     transform="translate(-12.755424,-194.02836)">
    <text
       xml:space="preserve"
       transform="matrix(0.30473865,0,0,0.3043833,31.24949,199.4189)"
       id="text485"
       style="font-style:normal;font-variant:normal;font-weight:normal;font-stretch:normal;font-size:5.33333px;line-height:1.25;font-family:Pirulen;-inkscape-font-specification:Pirulen;white-space:pre;shape-inside:url(#rect487);display:inline"><tspan
         x="-81.429688"
         y="-59.180393"
         id="tspan789">Austin PCB rev. beta - rc1 | Designed by gondolindrim for driftmechanics</tspan></text>
    <g
       aria-label="Austin PCB rev. beta - rc1 | Designed by gondolindrim for driftmechanics"
       transform="matrix(0.30473865,0,0,0.3043833,37.570197,213.36331)"
       id="text574"
       style="font-size:5.33333px;line-height:1.25;font-family:Pirulen;-inkscape-font-specification:Pirulen;white-space:pre;shape-inside:url(#rect576);display:inline">
      <path
         d="m -75.936357,-59.180393 -2.479999,-3.754665 h -0.517333 l -2.495998,3.754665 h 0.789332 l 1.967999,-3.023999 1.935999,3.023999 z"
         id="path594" />
      <path
         d="m -72.128358,-59.180393 c 0.853333,0 1.029333,-0.368 1.029333,-0.906667 v -2.847998 h -0.709333 v 2.853332 c 0,0.224 -0.149334,0.346666 -0.469333,0.346666 h -2.330666 c -0.32,0 -0.469333,-0.122666 -0.469333,-0.346666 v -2.853332 h -0.709333 v 2.847998 c 0,0.538667 0.325333,0.906667 1.178666,0.906667 z"
         id="path596" />
      <path
         d="m -67.109694,-59.180393 c 0.853333,0 1.178666,-0.368 1.178666,-0.906667 v -0.463999 c 0,-0.538667 -0.325333,-0.906666 -1.178666,-0.906666 h -2.207998 c -0.32,0 -0.469333,-0.122667 -0.469333,-0.346667 v -0.229333 c 0,-0.224 0.149333,-0.346667 0.469333,-0.346667 h 3.178664 v -0.554666 h -3.178664 c -0.853333,0 -1.178666,0.368 -1.178666,0.906666 v 0.218667 c 0,0.538666 0.325333,0.906666 1.178666,0.906666 h 2.207998 c 0.32,0 0.469333,0.122667 0.469333,0.346666 v 0.474667 c 0,0.224 -0.149333,0.346666 -0.469333,0.346666 h -3.263998 v 0.554667 z"
         id="path598" />
      <path
         d="m -63.019032,-59.180393 v -3.199999 h 1.914665 v -0.554666 h -4.591997 v 0.554666 h 1.967999 v 3.199999 z"
         id="path600" />
      <path
         d="m -59.893694,-59.180393 v -3.754665 h -0.709333 v 3.754665 z"
         id="path602" />
      <path
         d="m -54.203029,-59.180393 v -3.754665 h -0.618666 v 2.789332 l -3.738665,-2.789332 h -0.613333 v 3.754665 h 0.618667 v -2.922665 l 4.005331,2.922665 z"
         id="path604" />
      <path
         d="m -47.765697,-60.567059 c 0.853332,0 1.178666,-0.368 1.178666,-0.906666 v -0.554667 c 0,-0.538666 -0.325334,-0.906666 -1.178666,-0.906666 h -3.077332 v 3.754665 h 0.709333 v -1.386666 z m 0.469333,-0.901333 c 0,0.224 -0.149334,0.346666 -0.469333,0.346666 h -2.367999 v -1.258666 h 2.367999 c 0.319999,0 0.469333,0.122667 0.469333,0.346667 z"
         id="path606" />
      <path
         d="m -41.915031,-59.180393 v -0.554667 h -3.023998 c -0.32,0 -0.469333,-0.122666 -0.469333,-0.346666 v -1.951999 c 0,-0.224 0.149333,-0.346667 0.469333,-0.346667 h 3.023998 v -0.554666 h -3.023998 c -0.853333,0 -1.178666,0.368 -1.178666,0.906666 v 1.941332 c 0,0.538667 0.325333,0.906667 1.178666,0.906667 z"
         id="path608" />
      <path
         d="m -38.251029,-59.180393 c 0.928,0 1.189333,-0.384 1.189333,-0.810667 v -0.549333 c 0,-0.362666 -0.208,-0.538666 -0.490666,-0.613333 0.266666,-0.05333 0.442666,-0.298666 0.442666,-0.623999 v -0.346667 c 0,-0.501333 -0.32,-0.810666 -1.151999,-0.810666 h -3.055999 v 3.754665 z m 0.48,-0.944 c 0,0.304 -0.197333,0.389333 -0.48,0.389333 h -2.357332 v -1.114666 h 2.357332 c 0.282667,0 0.48,0.08533 0.48,0.32 z m -0.048,-1.573332 c 0,0.208 -0.112,0.293333 -0.442666,0.293333 h -2.346666 v -0.976 h 2.346666 c 0.330666,0 0.442666,0.08533 0.442666,0.293334 z"
         id="path610" />
      <path
         d="m -29.403034,-59.180393 -0.885333,-1.685333 c 0.666666,-0.064 0.928,-0.410666 0.928,-0.895999 v -0.266667 c 0,-0.538666 -0.325334,-0.906666 -1.178666,-0.906666 h -3.189332 v 3.754665 h 0.709333 v -1.674666 h 1.978666 l 0.879999,1.674666 z m -0.666666,-2.575999 c 0,0.224 -0.149334,0.346667 -0.469333,0.346667 h -2.479999 v -0.970667 h 2.479999 c 0.319999,0 0.469333,0.122667 0.469333,0.346667 z"
         id="path612" />
      <path
         d="m -24.928366,-59.180393 v -0.554667 h -3.151999 v -1.151999 h 2.991999 v -0.554666 h -2.991999 v -0.938667 h 3.151999 v -0.554666 h -3.861332 v 3.754665 z"
         id="path614" />
      <path
         d="m -21.659036,-59.180393 2.479999,-3.754665 h -0.784 l -1.941332,3.023998 -1.962665,-3.023998 h -0.805333 l 2.495998,3.754665 z"
         id="path616" />
      <path
         d="m -18.763032,-59.180393 v -0.693333 h -0.837333 v 0.693333 z"
         id="path618" />
      <path
         d="m -12.320372,-59.180393 c 0.927999,0 1.189332,-0.384 1.189332,-0.810667 v -0.549333 c 0,-0.362666 -0.208,-0.538666 -0.490666,-0.613333 0.266666,-0.05333 0.442666,-0.298666 0.442666,-0.623999 v -0.346667 c 0,-0.501333 -0.319999,-0.810666 -1.151999,-0.810666 h -3.055998 v 3.754665 z m 0.479999,-0.944 c 0,0.304 -0.197333,0.389333 -0.479999,0.389333 h -2.357332 v -1.114666 h 2.357332 c 0.282666,0 0.479999,0.08533 0.479999,0.32 z m -0.048,-1.573332 c 0,0.208 -0.112,0.293333 -0.442666,0.293333 h -2.346665 v -0.976 h 2.346665 c 0.330666,0 0.442666,0.08533 0.442666,0.293334 z"
         id="path620" />
      <path
         d="m -6.6030377,-59.180393 v -0.554667 h -3.1519981 v -1.151999 h 2.9919982 v -0.554666 h -2.9919982 v -0.938667 h 3.1519981 v -0.554666 h -3.8613313 v 3.754665 z"
         id="path622" />
      <path
         d="m -3.5470399,-59.180393 v -3.199999 h 1.9146655 v -0.554666 h -4.5919973 v 0.554666 h 1.9679989 v 3.199999 z"
         id="path624" />
      <path
         d="M 3.0022946,-59.180393 0.52229608,-62.935058 H 0.00496305 l -2.49599855,3.754665 h 0.7893329 l 1.96799883,-3.023999 1.93599887,3.023999 z"
         id="path626" />
      <path
         d="m 7.7756336,-60.892392 v -0.592 H 5.7809681 v 0.592 z"
         id="path628" />
      <path
         d="m 15.231629,-59.180393 -0.885333,-1.685333 c 0.666666,-0.064 0.927999,-0.410666 0.927999,-0.895999 v -0.266667 c 0,-0.538666 -0.325333,-0.906666 -1.178666,-0.906666 h -3.189331 v 3.754665 h 0.709333 v -1.674666 h 1.978665 l 0.88,1.674666 z m -0.666667,-2.575999 c 0,0.224 -0.149333,0.346667 -0.469333,0.346667 h -2.479998 v -0.970667 h 2.479998 c 0.32,0 0.469333,0.122667 0.469333,0.346667 z"
         id="path630" />
      <path
         d="m 20.020955,-59.180393 v -0.554667 h -3.023998 c -0.32,0 -0.469333,-0.122666 -0.469333,-0.346666 v -1.951999 c 0,-0.224 0.149333,-0.346667 0.469333,-0.346667 h 3.023998 v -0.554666 h -3.023998 c -0.853333,0 -1.178666,0.368 -1.178666,0.906666 v 1.941332 c 0,0.538667 0.325333,0.906667 1.178666,0.906667 z"
         id="path632" />
      <path
         d="m 22.015628,-59.180393 v -3.754665 h -0.986666 l -0.730666,0.826666 h 0.746666 l 0.261333,-0.298666 v 3.226665 z"
         id="path634" />
      <path
         d="m 26.143619,-58.593727 v -4.927997 h -0.496 v 4.927997 z"
         id="path636" />
      <path
         d="m 33.210287,-59.180393 c 1.061332,0 1.386665,-0.368 1.386665,-1.072 v -1.573332 c 0,-0.741333 -0.325333,-1.109333 -1.386665,-1.109333 h -3.439998 v 3.754665 z m 0.677332,-1.077333 c 0,0.4 -0.149333,0.522666 -0.677332,0.522666 h -2.730665 v -2.645332 h 2.730665 c 0.527999,0 0.677332,0.122667 0.677332,0.554667 z"
         id="path638" />
      <path
         d="m 39.124952,-59.180393 v -0.554667 h -3.151999 v -1.151999 h 2.991999 v -0.554666 h -2.991999 v -0.938667 h 3.151999 v -0.554666 h -3.861331 v 3.754665 z"
         id="path640" />
      <path
         d="m 43.039615,-59.180393 c 0.853333,0 1.178666,-0.368 1.178666,-0.906667 v -0.463999 c 0,-0.538667 -0.325333,-0.906666 -1.178666,-0.906666 h -2.207998 c -0.32,0 -0.469333,-0.122667 -0.469333,-0.346667 v -0.229333 c 0,-0.224 0.149333,-0.346667 0.469333,-0.346667 h 3.178665 v -0.554666 h -3.178665 c -0.853333,0 -1.178666,0.368 -1.178666,0.906666 v 0.218667 c 0,0.538666 0.325333,0.906666 1.178666,0.906666 h 2.207998 c 0.32,0 0.469333,0.122667 0.469333,0.346666 v 0.474667 c 0,0.224 -0.149333,0.346666 -0.469333,0.346666 h -3.263998 v 0.554667 z"
         id="path642" />
      <path
         d="m 45.535616,-59.180393 v -3.754665 h -0.709333 v 3.754665 z"
         id="path644" />
      <path
         d="m 49.226282,-59.180393 c 0.890666,0 1.338666,-0.266667 1.338666,-0.8 v -1.247999 h -0.709333 v 1.247999 c 0,0.165333 -0.208,0.245333 -0.629333,0.245333 h -1.658666 c -0.421333,0 -0.629332,-0.08533 -0.629332,-0.256 v -2.133332 c 0,-0.170666 0.207999,-0.256 0.629332,-0.256 h 2.938665 v -0.554666 h -2.938665 c -0.890666,0 -1.338665,0.272 -1.338665,0.810666 v 2.133332 c 0,0.538667 0.447999,0.810667 1.338665,0.810667 z"
         id="path646" />
      <path
         d="m 56.191613,-59.180393 v -3.754665 h -0.618666 v 2.789332 l -3.738665,-2.789332 h -0.613333 v 3.754665 h 0.618667 v -2.922665 l 4.005331,2.922665 z"
         id="path648" />
      <path
         d="m 60.746282,-59.180393 v -0.554667 h -3.151998 v -1.151999 h 2.991998 v -0.554666 h -2.991998 v -0.938667 h 3.151998 v -0.554666 h -3.861331 v 3.754665 z"
         id="path650" />
      <path
         d="m 64.788938,-59.180393 c 1.061333,0 1.386666,-0.368 1.386666,-1.072 v -1.573332 c 0,-0.741333 -0.325333,-1.109333 -1.386666,-1.109333 H 61.34894 v 3.754665 z m 0.677333,-1.077333 c 0,0.4 -0.149333,0.522666 -0.677333,0.522666 h -2.730665 v -2.645332 h 2.730665 c 0.528,0 0.677333,0.122667 0.677333,0.554667 z"
         id="path652" />
      <path
         d="m 72.575609,-59.180393 c 0.927999,0 1.189332,-0.384 1.189332,-0.810667 v -0.549333 c 0,-0.362666 -0.208,-0.538666 -0.490666,-0.613333 0.266666,-0.05333 0.442666,-0.298666 0.442666,-0.623999 v -0.346667 c 0,-0.501333 -0.32,-0.810666 -1.151999,-0.810666 h -3.055998 v 3.754665 z m 0.479999,-0.944 c 0,0.304 -0.197333,0.389333 -0.479999,0.389333 h -2.357332 v -1.114666 h 2.357332 c 0.282666,0 0.479999,0.08533 0.479999,0.32 z m -0.048,-1.573332 c 0,0.208 -0.112,0.293333 -0.442666,0.293333 h -2.346665 v -0.976 h 2.346665 c 0.330666,0 0.442666,0.08533 0.442666,0.293334 z"
         id="path654" />
      <path
         d="m 76.964938,-59.180393 v -1.525333 l 2.394666,-2.229332 h -0.896 l -1.855999,1.717332 -1.855999,-1.717332 H 73.84494 l 2.410665,2.229332 v 1.525333 z"
         id="path656" />
      <path
         d="m 85.343607,-59.180393 c 0.890666,0 1.338666,-0.266667 1.338666,-0.8 v -1.247999 H 85.97294 v 1.247999 c 0,0.165333 -0.208,0.245333 -0.629333,0.245333 h -1.658666 c -0.421333,0 -0.629333,-0.08533 -0.629333,-0.256 v -2.133332 c 0,-0.170666 0.208,-0.256 0.629333,-0.256 h 2.938665 v -0.554666 h -2.938665 c -0.890666,0 -1.338666,0.272 -1.338666,0.810666 v 2.133332 c 0,0.538667 0.448,0.810667 1.338666,0.810667 z"
         id="path658" />
      <path
         d="m 90.970272,-59.180393 c 0.853333,0 1.178666,-0.368 1.178666,-0.906667 v -1.941332 c 0,-0.538666 -0.325333,-0.906666 -1.178666,-0.906666 h -2.479999 c -0.853332,0 -1.178666,0.368 -1.178666,0.906666 v 1.941332 c 0,0.538667 0.325334,0.906667 1.178666,0.906667 z m 0.469333,-0.901333 c 0,0.224 -0.149333,0.346666 -0.469333,0.346666 h -2.479999 c -0.319999,0 -0.469333,-0.122666 -0.469333,-0.346666 v -1.951999 c 0,-0.224 0.149334,-0.346667 0.469333,-0.346667 h 2.479999 c 0.32,0 0.469333,0.122667 0.469333,0.346667 z"
         id="path660" />
      <path
         d="m 97.786263,-59.180393 v -3.754665 h -0.618666 v 2.789332 l -3.738664,-2.789332 H 92.8156 v 3.754665 h 0.618666 v -2.922665 l 4.005331,2.922665 z"
         id="path662" />
      <path
         d="m 101.9196,-59.180393 c 1.06133,0 1.38666,-0.368 1.38666,-1.072 v -1.573332 c 0,-0.741333 -0.32533,-1.109333 -1.38666,-1.109333 h -3.439999 v 3.754665 z m 0.67733,-1.077333 c 0,0.4 -0.14933,0.522666 -0.67733,0.522666 h -2.730666 v -2.645332 h 2.730666 c 0.528,0 0.67733,0.122667 0.67733,0.554667 z"
         id="path664" />
      <path
         d="m 107.60493,-59.180393 c 0.85333,0 1.17867,-0.368 1.17867,-0.906667 v -1.941332 c 0,-0.538666 -0.32534,-0.906666 -1.17867,-0.906666 h -2.48 c -0.85333,0 -1.17866,0.368 -1.17866,0.906666 v 1.941332 c 0,0.538667 0.32533,0.906667 1.17866,0.906667 z m 0.46933,-0.901333 c 0,0.224 -0.14933,0.346666 -0.46933,0.346666 h -2.48 c -0.32,0 -0.46933,-0.122666 -0.46933,-0.346666 v -1.951999 c 0,-0.224 0.14933,-0.346667 0.46933,-0.346667 h 2.48 c 0.32,0 0.46933,0.122667 0.46933,0.346667 z"
         id="path666" />
      <path
         d="m 113.21026,-59.180393 v -0.554667 h -3.04534 v -3.199998 h -0.71466 v 3.754665 z"
         id="path668" />
      <path
         d="m 114.44225,-59.180393 v -3.754665 h -0.70933 v 3.754665 z"
         id="path670" />
      <path
         d="m 120.13293,-59.180393 v -3.754665 h -0.61867 v 2.789332 l -3.73866,-2.789332 h -0.61334 v 3.754665 h 0.61867 v -2.922665 l 4.00533,2.922665 z"
         id="path672" />
      <path
         d="m 124.26626,-59.180393 c 1.06134,0 1.38667,-0.368 1.38667,-1.072 v -1.573332 c 0,-0.741333 -0.32533,-1.109333 -1.38667,-1.109333 h -3.43999 v 3.754665 z m 0.67734,-1.077333 c 0,0.4 -0.14934,0.522666 -0.67734,0.522666 h -2.73066 v -2.645332 h 2.73066 c 0.528,0 0.67734,0.122667 0.67734,0.554667 z"
         id="path674" />
      <path
         d="m 130.64493,-59.180393 -0.88533,-1.685333 c 0.66666,-0.064 0.92799,-0.410666 0.92799,-0.895999 v -0.266667 c 0,-0.538666 -0.32533,-0.906666 -1.17866,-0.906666 h -3.18933 v 3.754665 h 0.70933 v -1.674666 h 1.97867 l 0.88,1.674666 z m -0.66667,-2.575999 c 0,0.224 -0.14933,0.346667 -0.46933,0.346667 h -2.48 v -0.970667 h 2.48 c 0.32,0 0.46933,0.122667 0.46933,0.346667 z"
         id="path676" />
      <path
         d="m 131.99426,-59.180393 v -3.754665 h -0.70934 v 3.754665 z"
         id="path678" />
      <path
         d="m 138.4316,-59.180393 v -3.754665 h -0.608 l -2.21867,3.066665 -2.22933,-3.066665 h -0.66133 v 3.754665 h 0.656 v -2.623999 l 1.91466,2.623999 h 0.58133 l 1.90934,-2.629332 v 2.629332 z"
         id="path680" />
      <path
         d="m 145.4396,-60.727059 v -0.554667 h -2.93867 v -1.098666 h 3.152 v -0.554666 h -3.86133 v 3.754665 h 0.70933 v -1.546666 z"
         id="path682" />
      <path
         d="m 149.66893,-59.180393 c 0.85333,0 1.17866,-0.368 1.17866,-0.906667 v -1.941332 c 0,-0.538666 -0.32533,-0.906666 -1.17866,-0.906666 h -2.48 c -0.85334,0 -1.17867,0.368 -1.17867,0.906666 v 1.941332 c 0,0.538667 0.32533,0.906667 1.17867,0.906667 z m 0.46933,-0.901333 c 0,0.224 -0.14933,0.346666 -0.46933,0.346666 h -2.48 c -0.32,0 -0.46934,-0.122666 -0.46934,-0.346666 v -1.951999 c 0,-0.224 0.14934,-0.346667 0.46934,-0.346667 h 2.48 c 0.32,0 0.46933,0.122667 0.46933,0.346667 z"
         id="path684" />
      <path
         d="m 155.83958,-59.180393 -0.88533,-1.685333 c 0.66667,-0.064 0.928,-0.410666 0.928,-0.895999 v -0.266667 c 0,-0.538666 -0.32533,-0.906666 -1.17866,-0.906666 h -3.18934 v 3.754665 h 0.70934 v -1.674666 h 1.97866 l 0.88,1.674666 z m -0.66666,-2.575999 c 0,0.224 -0.14934,0.346667 -0.46933,0.346667 h -2.48 v -0.970667 h 2.48 c 0.31999,0 0.46933,0.122667 0.46933,0.346667 z"
         id="path686" />
      <path
         d="m 162.55958,-59.180393 c 1.06134,0 1.38667,-0.368 1.38667,-1.072 v -1.573332 c 0,-0.741333 -0.32533,-1.109333 -1.38667,-1.109333 h -3.43999 v 3.754665 z m 0.67734,-1.077333 c 0,0.4 -0.14934,0.522666 -0.67734,0.522666 h -2.73066 v -2.645332 h 2.73066 c 0.528,0 0.67734,0.122667 0.67734,0.554667 z"
         id="path688" />
      <path
         d="m 168.93825,-59.180393 -0.88533,-1.685333 c 0.66666,-0.064 0.92799,-0.410666 0.92799,-0.895999 v -0.266667 c 0,-0.538666 -0.32533,-0.906666 -1.17866,-0.906666 h -3.18933 v 3.754665 h 0.70933 v -1.674666 h 1.97867 l 0.87999,1.674666 z m -0.66667,-2.575999 c 0,0.224 -0.14933,0.346667 -0.46933,0.346667 h -2.48 v -0.970667 h 2.48 c 0.32,0 0.46933,0.122667 0.46933,0.346667 z"
         id="path690" />
      <path
         d="m 170.28759,-59.180393 v -3.754665 h -0.70933 v 3.754665 z"
         id="path692" />
      <path
         d="m 174.65558,-60.727059 v -0.554667 h -2.93866 v -1.098666 h 3.152 v -0.554666 h -3.86133 v 3.754665 h 0.70933 v -1.546666 z"
         id="path694" />
      <path
         d="m 177.89292,-59.180393 v -3.199999 h 1.91467 v -0.554666 h -4.592 v 0.554666 h 1.968 v 3.199999 z"
         id="path696" />
      <path
         d="m 185.99957,-59.180393 v -3.754665 h -0.608 l -2.21866,3.066665 -2.22933,-3.066665 h -0.66134 v 3.754665 h 0.656 v -2.623999 l 1.91467,2.623999 h 0.58133 l 1.90933,-2.629332 v 2.629332 z"
         id="path698" />
      <path
         d="m 190.55425,-59.180393 v -0.554667 h -3.152 v -1.151999 h 2.992 v -0.554666 h -2.992 v -0.938667 h 3.152 v -0.554666 h -3.86133 v 3.754665 z"
         id="path700" />
      <path
         d="m 195.33291,-59.180393 v -0.554667 h -3.024 c -0.32,0 -0.46934,-0.122666 -0.46934,-0.346666 v -1.951999 c 0,-0.224 0.14934,-0.346667 0.46934,-0.346667 h 3.024 v -0.554666 h -3.024 c -0.85334,0 -1.17867,0.368 -1.17867,0.906666 v 1.941332 c 0,0.538667 0.32533,0.906667 1.17867,0.906667 z"
         id="path702" />
      <path
         d="m 200.42092,-59.180393 v -3.754665 h -0.70933 v 1.493333 h -3.072 v -1.493333 h -0.70934 v 3.754665 h 0.70934 v -1.706666 h 3.072 v 1.706666 z"
         id="path704" />
      <path
         d="m 206.26091,-59.180393 -2.48,-3.754665 h -0.51733 l -2.496,3.754665 h 0.78933 l 1.968,-3.023999 1.936,3.023999 z"
         id="path706" />
      <path
         d="m 211.57822,-59.180393 v -3.754665 h -0.61866 v 2.789332 l -3.73867,-2.789332 h -0.61333 v 3.754665 h 0.61867 v -2.922665 l 4.00533,2.922665 z"
         id="path708" />
      <path
         d="m 213.00756,-59.180393 v -3.754665 h -0.70933 v 3.754665 z"
         id="path710" />
      <path
         d="m 217.90358,-59.180393 v -0.554667 h -3.02399 c -0.32,0 -0.46934,-0.122666 -0.46934,-0.346666 v -1.951999 c 0,-0.224 0.14934,-0.346667 0.46934,-0.346667 h 3.02399 v -0.554666 h -3.02399 c -0.85334,0 -1.17867,0.368 -1.17867,0.906666 v 1.941332 c 0,0.538667 0.32533,0.906667 1.17867,0.906667 z"
         id="path712" />
      <path
         d="m 221.8129,-59.180393 c 0.85333,0 1.17867,-0.368 1.17867,-0.906667 v -0.463999 c 0,-0.538667 -0.32534,-0.906666 -1.17867,-0.906666 h -2.208 c -0.32,0 -0.46933,-0.122667 -0.46933,-0.346667 v -0.229333 c 0,-0.224 0.14933,-0.346667 0.46933,-0.346667 h 3.17867 v -0.554666 h -3.17867 c -0.85333,0 -1.17866,0.368 -1.17866,0.906666 v 0.218667 c 0,0.538666 0.32533,0.906666 1.17866,0.906666 h 2.208 c 0.32,0 0.46933,0.122667 0.46933,0.346666 v 0.474667 c 0,0.224 -0.14933,0.346666 -0.46933,0.346666 h -3.264 v 0.554667 z"
         id="path714" />
    </g>
  </g>
</svg>
